<svg xmlns="http://www.w3.org/2000/svg" xmlns:xlink="http://www.w3.org/1999/xlink" version="1.1" width="1022.5738914923828" height="1227.4271759619994"><desc>%40startuml%0Aactor%20%D0%9F%D0%BE%D0%BB%D1%8C%D0%B7%D0%BE%D0%B2%D0%B0%D1%82%D0%B5%D0%BB%D1%8C%0Aboundary%20%D0%9A%D0%BB%D0%B8%D0%B5%D0%BD%D1%82%0Acontrol%20%D0%A1%D0%B5%D1%80%D0%B2%D0%B5%D1%80%20API%0Adatabase%20%D0%91%D0%B0%D0%B7%D0%B0%20%D0%B4%D0%B0%D0%BD%D0%BD%D1%8B%D1%85%0A%0Aautonumber%0A%0Aactivate%20%D0%9F%D0%BE%D0%BB%D1%8C%D0%B7%D0%BE%D0%B2%D0%B0%D1%82%D0%B5%D0%BB%D1%8C%0A%D0%9F%D0%BE%D0%BB%D1%8C%D0%B7%D0%BE%D0%B2%D0%B0%D1%82%D0%B5%D0%BB%D1%8C%20-%3E%20%D0%9A%D0%BB%D0%B8%D0%B5%D0%BD%D1%82%3A%20%D0%9E%D1%82%D0%BF%D1%80%D0%B0%D0%B2%D0%B8%D1%82%D1%8C%20%D0%B7%D0%B0%D0%BF%D1%80%D0%BE%D1%81%20%D0%BD%D0%B0%20%D0%B2%D0%B8%D1%82%D1%80%D0%B8%D0%BD%D1%83%0Adeactivate%20%D0%9F%D0%BE%D0%BB%D1%8C%D0%B7%D0%BE%D0%B2%D0%B0%D1%82%D0%B5%D0%BB%D1%8C%0Aactivate%20%D0%9A%D0%BB%D0%B8%D0%B5%D0%BD%D1%82%0A%D0%9A%D0%BB%D0%B8%D0%B5%D0%BD%D1%82%20-%3E%20%D0%A1%D0%B5%D1%80%D0%B2%D0%B5%D1%80%20API%3A%20GET%20%2Fapi%2Fproducts%0Aactivate%20%D0%A1%D0%B5%D1%80%D0%B2%D0%B5%D1%80%20API%0A%D0%A1%D0%B5%D1%80%D0%B2%D0%B5%D1%80%20API%20-%3E%20%D0%91%D0%B0%D0%B7%D0%B0%20%D0%B4%D0%B0%D0%BD%D0%BD%D1%8B%D1%85%3A%20%D0%97%D0%B0%D0%BF%D1%80%D0%BE%D1%81%D0%B8%D1%82%D1%8C%20%D0%B4%D0%B0%D0%BD%D0%BD%D1%8B%D0%B5%20%D1%82%D0%BE%D0%B2%D0%B0%D1%80%D0%BE%D0%B2%0Aactivate%20%D0%91%D0%B0%D0%B7%D0%B0%20%D0%B4%D0%B0%D0%BD%D0%BD%D1%8B%D1%85%0A%D0%91%D0%B0%D0%B7%D0%B0%20%D0%B4%D0%B0%D0%BD%D0%BD%D1%8B%D1%85%20--%3E%20%D0%A1%D0%B5%D1%80%D0%B2%D0%B5%D1%80%20API%3A%20%D0%92%D0%B5%D1%80%D0%BD%D1%83%D1%82%D1%8C%20%D1%81%D0%BF%D0%B8%D1%81%D0%BE%D0%BA%20%D1%82%D0%BE%D0%B2%D0%B0%D1%80%D0%BE%D0%B2%0Adeactivate%20%D0%91%D0%B0%D0%B7%D0%B0%20%D0%B4%D0%B0%D0%BD%D0%BD%D1%8B%D1%85%0A%D0%A1%D0%B5%D1%80%D0%B2%D0%B5%D1%80%20API%20--%3E%20%D0%9A%D0%BB%D0%B8%D0%B5%D0%BD%D1%82%3A%20%D0%A1%D0%BF%D0%B8%D1%81%D0%BE%D0%BA%20%D1%82%D0%BE%D0%B2%D0%B0%D1%80%D0%BE%D0%B2%0Adeactivate%20%D0%A1%D0%B5%D1%80%D0%B2%D0%B5%D1%80%20API%0Adeactivate%20%D0%9A%D0%BB%D0%B8%D0%B5%D0%BD%D1%82%0Aactivate%20%D0%9F%D0%BE%D0%BB%D1%8C%D0%B7%D0%BE%D0%B2%D0%B0%D1%82%D0%B5%D0%BB%D1%8C%0A%D0%9F%D0%BE%D0%BB%D1%8C%D0%B7%D0%BE%D0%B2%D0%B0%D1%82%D0%B5%D0%BB%D1%8C%20-%3E%20%D0%9A%D0%BB%D0%B8%D0%B5%D0%BD%D1%82%3A%20%D0%92%D1%8B%D0%B1%D1%80%D0%B0%D1%82%D1%8C%20%D1%82%D0%BE%D0%B2%D0%B0%D1%80%0Adeactivate%20%D0%9F%D0%BE%D0%BB%D1%8C%D0%B7%D0%BE%D0%B2%D0%B0%D1%82%D0%B5%D0%BB%D1%8C%0Aactivate%20%D0%9A%D0%BB%D0%B8%D0%B5%D0%BD%D1%82%0A%D0%9A%D0%BB%D0%B8%D0%B5%D0%BD%D1%82%20-%3E%20%D0%A1%D0%B5%D1%80%D0%B2%D0%B5%D1%80%20API%3A%20GET%20%2Fapi%2Fproducts%2F%7Bid%7D%0Aactivate%20%D0%A1%D0%B5%D1%80%D0%B2%D0%B5%D1%80%20API%0A%D0%A1%D0%B5%D1%80%D0%B2%D0%B5%D1%80%20API%20-%3E%20%D0%91%D0%B0%D0%B7%D0%B0%20%D0%B4%D0%B0%D0%BD%D0%BD%D1%8B%D1%85%3A%20%D0%97%D0%B0%D0%BF%D1%80%D0%BE%D1%81%D0%B8%D1%82%D1%8C%20%D0%B4%D0%B0%D0%BD%D0%BD%D1%8B%D0%B5%20%D0%BE%20%D1%82%D0%BE%D0%B2%D0%B0%D1%80%D0%B5%0Aactivate%20%D0%91%D0%B0%D0%B7%D0%B0%20%D0%B4%D0%B0%D0%BD%D0%BD%D1%8B%D1%85%0A%D0%91%D0%B0%D0%B7%D0%B0%20%D0%B4%D0%B0%D0%BD%D0%BD%D1%8B%D1%85%20--%3E%20%D0%A1%D0%B5%D1%80%D0%B2%D0%B5%D1%80%20API%3A%20%D0%92%D0%B5%D1%80%D0%BD%D1%83%D1%82%D1%8C%20%D0%B4%D0%B5%D1%82%D0%B0%D0%BB%D0%B8%20%D1%82%D0%BE%D0%B2%D0%B0%D1%80%D0%B0%0Adeactivate%20%D0%91%D0%B0%D0%B7%D0%B0%20%D0%B4%D0%B0%D0%BD%D0%BD%D1%8B%D1%85%0A%D0%A1%D0%B5%D1%80%D0%B2%D0%B5%D1%80%20API%20--%3E%20%D0%9A%D0%BB%D0%B8%D0%B5%D0%BD%D1%82%3A%20%D0%94%D0%B5%D1%82%D0%B0%D0%BB%D0%B8%20%D1%82%D0%BE%D0%B2%D0%B0%D1%80%D0%B0%0Adeactivate%20%D0%A1%D0%B5%D1%80%D0%B2%D0%B5%D1%80%20API%0Adeactivate%20%D0%9A%D0%BB%D0%B8%D0%B5%D0%BD%D1%82%0Aactivate%20%D0%9F%D0%BE%D0%BB%D1%8C%D0%B7%D0%BE%D0%B2%D0%B0%D1%82%D0%B5%D0%BB%D1%8C%0A%D0%9F%D0%BE%D0%BB%D1%8C%D0%B7%D0%BE%D0%B2%D0%B0%D1%82%D0%B5%D0%BB%D1%8C%20-%3E%20%D0%9A%D0%BB%D0%B8%D0%B5%D0%BD%D1%82%3A%20%D0%94%D0%BE%D0%B1%D0%B0%D0%B2%D0%B8%D1%82%D1%8C%20%D1%82%D0%BE%D0%B2%D0%B0%D1%80%20%D0%B2%20%D0%BA%D0%BE%D1%80%D0%B7%D0%B8%D0%BD%D1%83%0Aactivate%20%D0%9A%D0%BB%D0%B8%D0%B5%D0%BD%D1%82%0A%D0%9A%D0%BB%D0%B8%D0%B5%D0%BD%D1%82%20-%3E%20%D0%A1%D0%B5%D1%80%D0%B2%D0%B5%D1%80%20API%3A%20POST%20%2Fapi%2Fcart%0Aactivate%20%D0%A1%D0%B5%D1%80%D0%B2%D0%B5%D1%80%20API%0A%D0%A1%D0%B5%D1%80%D0%B2%D0%B5%D1%80%20API%20-%3E%20%D0%91%D0%B0%D0%B7%D0%B0%20%D0%B4%D0%B0%D0%BD%D0%BD%D1%8B%D1%85%3A%20%D0%9F%D1%80%D0%BE%D0%B2%D0%B5%D1%80%D0%B8%D1%82%D1%8C%20%D0%BD%D0%B0%D0%BB%D0%B8%D1%87%D0%B8%D0%B5%20%D1%82%D0%BE%D0%B2%D0%B0%D1%80%D0%B0%0Aalt%20%D0%A2%D0%BE%D0%B2%D0%B0%D1%80%20%D0%B7%D0%B0%D0%BA%D0%BE%D0%BD%D1%87%D0%B8%D0%BB%D1%81%D1%8F%0A%D0%91%D0%B0%D0%B7%D0%B0%20%D0%B4%D0%B0%D0%BD%D0%BD%D1%8B%D1%85%20--%3E%20%D0%A1%D0%B5%D1%80%D0%B2%D0%B5%D1%80%20API%3A%20%D0%A2%D0%BE%D0%B2%D0%B0%D1%80%20%D0%B7%D0%B0%D0%BA%D0%BE%D0%BD%D1%87%D0%B8%D0%BB%D1%81%D1%8F%0A%D0%A1%D0%B5%D1%80%D0%B2%D0%B5%D1%80%20API%20--%3E%20%D0%9A%D0%BB%D0%B8%D0%B5%D0%BD%D1%82%3A%20%D0%A2%D0%BE%D0%B2%D0%B0%D1%80%20%D0%B7%D0%B0%D0%BA%D0%BE%D0%BD%D1%87%D0%B8%D0%BB%D1%81%D1%8F%0A%D0%9A%D0%BB%D0%B8%D0%B5%D0%BD%D1%82%20--%3E%20%D0%9F%D0%BE%D0%BB%D1%8C%D0%B7%D0%BE%D0%B2%D0%B0%D1%82%D0%B5%D0%BB%D1%8C%3A%20%D0%A3%D0%B2%D0%B5%D0%B4%D0%BE%D0%BC%D0%BB%D0%B5%D0%BD%D0%B8%D0%B5%2C%20%D1%87%D1%82%D0%BE%20%D1%82%D0%BE%D0%B2%D0%B0%D1%80%20%D0%B7%D0%B0%D0%BA%D0%BE%D0%BD%D1%87%D0%B8%D0%BB%D1%81%D1%8F%0Aelse%20%D0%A2%D0%BE%D0%B2%D0%B0%D1%80%20%D0%B8%D0%BC%D0%B5%D0%B5%D1%82%D1%81%D1%8F%20%D0%B2%20%D0%BD%D0%B0%D0%BB%D0%B8%D1%87%D0%B8%D0%B8%0A%D0%91%D0%B0%D0%B7%D0%B0%20%D0%B4%D0%B0%D0%BD%D0%BD%D1%8B%D1%85%20--%3E%20%D0%A1%D0%B5%D1%80%D0%B2%D0%B5%D1%80%20API%3A%20%D0%A2%D0%BE%D0%B2%D0%B0%D1%80%20%D0%B2%20%D0%BD%D0%B0%D0%BB%D0%B8%D1%87%D0%B8%D0%B8%0A%D0%A1%D0%B5%D1%80%D0%B2%D0%B5%D1%80%20API%20-%3E%20%D0%91%D0%B0%D0%B7%D0%B0%20%D0%B4%D0%B0%D0%BD%D0%BD%D1%8B%D1%85%3A%20%D0%9E%D0%B1%D0%BD%D0%BE%D0%B2%D0%B8%D1%82%D1%8C%20%D0%BA%D0%BE%D1%80%D0%B7%D0%B8%D0%BD%D1%83%0Aactivate%20%D0%91%D0%B0%D0%B7%D0%B0%20%D0%B4%D0%B0%D0%BD%D0%BD%D1%8B%D1%85%0A%D0%91%D0%B0%D0%B7%D0%B0%20%D0%B4%D0%B0%D0%BD%D0%BD%D1%8B%D1%85%20--%3E%20%D0%A1%D0%B5%D1%80%D0%B2%D0%B5%D1%80%20API%3A%20%D0%9F%D0%BE%D0%B4%D1%82%D0%B2%D0%B5%D1%80%D0%B6%D0%B4%D0%B5%D0%BD%D0%B8%D0%B5%20%D0%BE%D0%B1%D0%BD%D0%BE%D0%B2%D0%BB%D0%B5%D0%BD%D0%B8%D1%8F%0Adeactivate%20%D0%91%D0%B0%D0%B7%D0%B0%20%D0%B4%D0%B0%D0%BD%D0%BD%D1%8B%D1%85%0A%D0%A1%D0%B5%D1%80%D0%B2%D0%B5%D1%80%20API%20--%3E%20%D0%9A%D0%BB%D0%B8%D0%B5%D0%BD%D1%82%3A%20%D0%A2%D0%BE%D0%B2%D0%B0%D1%80%20%D0%B4%D0%BE%D0%B1%D0%B0%D0%B2%D0%BB%D0%B5%D0%BD%20%D0%B2%20%D0%BA%D0%BE%D1%80%D0%B7%D0%B8%D0%BD%D1%83%0Adeactivate%20%D0%A1%D0%B5%D1%80%D0%B2%D0%B5%D1%80%20API%0A%D0%9A%D0%BB%D0%B8%D0%B5%D0%BD%D1%82%20--%3E%20%D0%9F%D0%BE%D0%BB%D1%8C%D0%B7%D0%BE%D0%B2%D0%B0%D1%82%D0%B5%D0%BB%D1%8C%3A%20%D0%9E%D1%82%D0%BE%D0%B1%D1%80%D0%B0%D0%B6%D0%B5%D0%BD%D0%B8%D0%B5%20%D0%BA%D0%BE%D1%80%D0%B7%D0%B8%D0%BD%D1%8B%0Adeactivate%20%D0%9A%D0%BB%D0%B8%D0%B5%D0%BD%D1%82%0Adeactivate%20%D0%9F%D0%BE%D0%BB%D1%8C%D0%B7%D0%BE%D0%B2%D0%B0%D1%82%D0%B5%D0%BB%D1%8C%0Aend%20alt%0A%40enduml%0A</desc><defs/><g><g/><g/><g/><g/><g/><g/><g/><g/><g/><g/><g/><g/><g/><g/><g/><g/><g/><g/><g/><g/><g/><g/><g/><g/><g/><g/><g/><g/><g/><g/><g/><g/><g/><g/><g/><g/><g/><g/><g/><g/><g/><g/><g/><g/><g/><g/><g/><g/><g/><g/><g/><g/><g/><g/><g/><g/><g/><g/><g/><g/><g/><g/><g/><g/><g/><g/><g/><g/><g/><g/><g/><g/><g/><g/><g/><g/><g/><g/><g/><g/><g/><g/><g/><g/><g/><g/><g/><g/><g/><g/><g/><g/><g/><g/><g/><g/><g/><g/><g/><g/><g/><g/><g/><g/><g/><g/><g/><g/><g/><g/><g/><g/><g/><g/><g/><g/><g/><g/><g/><g/><g/><g/><g/><g/><g/><g/><g/><g/><g/><g/><g/><g/><g/><g/><g/><g><rect fill="white" stroke="none" x="0" y="0" width="1022" height="1227"/></g><g/><g><path fill="none" stroke="black" paint-order="fill stroke markers" d=" M 81.67601649999999 88.863505952 L 81.67601649999999 1227.4271759619994" stroke-miterlimit="10" stroke-width="1.3612669416666667" stroke-dasharray="12.565541,5.445067766666667"/><path fill="none" stroke="black" paint-order="fill stroke markers" d=" M 408.4436033639974 88.863505952 L 408.4436033639974 1227.4271759619994" stroke-miterlimit="10" stroke-width="1.3612669416666667" stroke-dasharray="12.565541,5.445067766666667"/><path fill="none" stroke="black" paint-order="fill stroke markers" d=" M 666.850396160612 88.863505952 L 666.850396160612 1227.4271759619994" stroke-miterlimit="10" stroke-width="1.3612669416666667" stroke-dasharray="12.565541,5.445067766666667"/><path fill="none" stroke="black" paint-order="fill stroke markers" d=" M 940.8978749923829 88.863505952 L 940.8978749923829 1227.4271759619994" stroke-miterlimit="10" stroke-width="1.3612669416666667" stroke-dasharray="12.565541,5.445067766666667"/></g><g><g><path fill="white" stroke="black" paint-order="fill stroke markers" d=" M 90.987082381 19.765595993000005 A 9.311065881 9.311065881 0 1 1 90.98707772546743 19.756284928670844 M 81.67601649999999 29.076661874000006 L 81.67601649999999 49.00560990000001 M 69.914670124 36.264151326000004 L 93.43736287599998 36.264151326000004 M 81.67601649999999 49.00560990000001 L 69.914670124 67.627741662 M 81.67601649999999 49.00560990000001 L 93.43736287599998 67.627741662" stroke-miterlimit="10" stroke-width="2.7769845610000004" stroke-dasharray=""/></g><g><g/><text fill="black" stroke="none" font-family="sans-serif" font-size="11pt" font-style="normal" font-weight="normal" text-decoration="normal" x="34.10980098486327" y="83.962944962" text-anchor="start" dominant-baseline="alphabetic" xml:space="preserve">Пользователь</text></g><g><path fill="white" stroke="black" paint-order="fill stroke markers" d=" M 440.8689819144974 41.981472481 A 24.2577769005 24.2577769005 0 1 1 440.86896978561 41.957214708142445 M 377.4067170939974 16.335203299999996 L 377.4067170939974 67.627741662 M 376.0182248134974 41.981472481 L 392.3534281134974 41.981472481" stroke-miterlimit="10" stroke-width="2.7769845610000004" stroke-dasharray=""/></g><g><g/><text fill="black" stroke="none" font-family="sans-serif" font-size="11pt" font-style="normal" font-weight="normal" text-decoration="normal" x="384.3204801950521" y="83.962944962" text-anchor="start" dominant-baseline="alphabetic" xml:space="preserve">Клиент</text></g><g><path fill="white" stroke="black" paint-order="fill stroke markers" d=" M 691.108173061112 41.981472481 A 24.2577769005 24.2577769005 0 1 1 691.1081609322246 41.957214708142445 M 663.583355500612 17.723695580499996 L 673.384477480612 9.556093930499996 M 663.583355500612 17.723695580499996 L 673.384477480612 25.891297230499994" stroke-miterlimit="10" stroke-width="2.7769845610000004" stroke-dasharray=""/></g><g><g/><text fill="black" stroke="none" font-family="sans-serif" font-size="11pt" font-style="normal" font-weight="normal" text-decoration="normal" x="627.587700848112" y="83.962944962" text-anchor="start" dominant-baseline="alphabetic" xml:space="preserve">Сервер API</text></g><g><path fill="white" stroke="black" paint-order="fill stroke markers" d=" M 917.0484781743829 56.84650748400001 L 917.0484781743829 22.542580554000004 L 964.7472718103828 22.542580554000004 L 964.7472718103828 56.84650748400001" stroke-miterlimit="10" stroke-width="2.7769845610000004" stroke-dasharray=""/><path fill="white" stroke="black" paint-order="fill stroke markers" d=" M 964.7472718103828 21.350110713100005 L 964.7460793504791 21.457921258016626 L 964.7425020900131 21.5657210219686 L 964.7365403867078 21.673499225069357 L 964.7281948367284 21.78124508958841 L 964.7174662746232 21.88894784102909 L 964.7043557732394 21.996596709206006 L 964.6888646436162 22.104180929322048 L 964.6709944348536 22.21168974304486 L 964.6507469339575 22.319112399582657 L 964.6281241656613 22.426438156759303 L 964.603128392223 22.53365628208852 L 964.575762113199 22.640756053847124 L 964.5460280651944 22.747726762147185 L 964.5139292215893 22.85455771000702 L 964.4794687922412 22.961238214420863 L 964.4426502231644 23.06775760742718 L 964.403477196185 23.17410523717543 L 964.3619536285732 23.28027046899126 L 964.3180836726513 23.386242686439964 L 964.2718717153779 23.492011292388106 L 964.2233223779106 23.59756571006323 L 964.1724405151425 23.70289538411153 L 964.1192312152176 23.80798978165338 L 964.0636997990214 23.912838393336596 L 964.0058518196494 24.01743073438739 L 963.9456930618512 24.12175634565881 L 963.8832295414526 24.225804794676677 L 963.8184675047534 24.329565676682787 L 963.7514134279033 24.433028615675408 L 963.6820740162544 24.536183265446862 L 963.6104562036898 24.639019310618135 L 963.5365671519311 24.741526467670404 L 963.4604142498221 24.843694485973387 L 963.3820051125892 24.945513148810388 L 963.3013475810811 25.04697227439998 L 963.2184497209837 25.14806171691415 L 963.1333198220138 25.24877136749289 L 963.0459663970904 25.34909115525506 L 962.9563981814832 25.449011048305486 L 962.8646241319392 25.54852105473813 L 962.7706534257868 25.64761122363528 L 962.6744954600182 25.74627164606261 L 962.5761598503501 25.8444924560601 L 962.4756564302613 25.942263831628598 L 962.3729952500101 26.039575995712028 L 962.2681865756291 26.136419217175067 L 962.1612408878982 26.23278381177628 L 962.0521688812972 26.328660143136503 L 961.940981462936 26.4240386237025 L 961.8276897514634 26.518909715705696 L 961.7123050759565 26.613263932115952 L 961.5948389747864 26.70709183759025 L 961.4753031944655 26.800384049416238 L 961.3537096884722 26.893131238450472 L 961.2300706160559 26.98532413005134 L 961.1043983410204 27.076953505006507 L 960.976705430489 27.168010200454837 L 960.847004653646 27.258485110802667 L 960.715308980461 27.34836918863435 L 960.5816315803918 27.437653445617016 L 960.4459858210669 27.526328953399368 L 960.308385266949 27.614386844504516 L 960.1688436779791 27.70181831321674 L 960.0273750081998 27.788614616462024 L 959.88399340436 27.874767074682374 L 959.7387132045009 27.960267072703758 L 959.591548936521 28.04510606059763 L 959.4425153167249 28.129275554535894 L 959.29162724835 28.212767137639304 L 959.1388998200777 28.295572460819116 L 958.9843483045233 28.377683243612026 L 958.8279881567099 28.459091275008173 L 958.6698350125216 28.539788414272262 L 958.5099046871413 28.61976659175761 L 958.3482131734681 28.69901780971312 L 958.1847766405189 28.777534143083034 L 958.0196114318103 28.855307740299452 L 957.852734063726 28.93233082406746 L 957.6841612238635 29.008595692142865 L 957.5139097693664 29.084094718102417 L 957.3419967252382 29.158820352106435 L 957.1684392826402 29.232765121653788 L 956.9932547971719 29.30592163232914 L 956.8164607871358 29.37828256854239 L 956.6380749317858 29.449840694260217 L 956.4581150695585 29.520588853729684 L 956.2765991962905 29.590519972193793 L 956.0935454634175 29.65962705659898 L 955.9089721761605 29.72790319629439 L 955.7228977916943 29.79534156372295 L 955.5353409173024 29.861935415104117 L 955.3463203085157 29.92767809110825 L 955.1558548672378 29.992563017522528 L 954.963963639854 30.05658370590838 L 954.7706658153272 30.119733754250326 L 954.5759807232787 30.182006847596153 L 954.3799278320555 30.24339675868842 L 954.1825267467833 30.30389734858717 L 953.9837972074063 30.363502567283838 L 953.7837590867125 30.42220645430622 L 953.5824323883476 30.48000313931454 L 953.3798372448135 30.536886842688453 L 953.1759939154557 30.59285187610503 L 952.9709227844374 30.647892643107568 L 952.7646443587007 30.70200363966523 L 952.5571792659164 30.75517945472345 L 952.3485482524206 30.80741477074504 L 952.1387721811412 30.85870436424193 L 951.9278720295102 30.909043106297503 L 951.7158688873672 30.958425963079506 L 951.5027839548495 31.006847996343417 L 951.2886385402732 31.054304363926256 L 951.0734540580008 31.100790320230814 L 950.8572520263016 31.146301216700202 L 950.6400540651985 31.19083250228269 L 950.4218818943065 31.234379723886832 L 950.2027573306609 31.27693852682676 L 949.9827022865355 31.318504655257648 L 949.7617387672515 31.359073952601285 L 949.5398888689765 31.39864236196175 L 949.3171747765155 31.43720592653107 L 949.093618761092 31.47476078998494 L 948.8692431781216 31.511303196868298 L 948.6440704649752 31.54682949297091 L 948.4181231387369 31.581336125692772 L 948.1914237939507 31.614819644399372 L 947.9639951003622 31.64727670076673 L 947.7358598006514 31.678704049116273 L 947.5070407081581 31.70909854673934 L 947.2775607046008 31.73845715421151 L 947.0474427377887 31.76677693569649 L 946.8167098193267 31.79405505923974 L 946.5853850223143 31.82028879705163 L 946.3534914790384 31.84547552578025 L 946.1210523786604 31.86961272677371 L 945.8880909648963 31.892697986332017 L 945.6546305336933 31.91472899594847 L 945.4206944309003 31.935703552540453 L 945.1863060499323 31.955619558669788 L 944.9514888294324 31.974475022752465 L 944.7162662509268 31.992268059257782 L 944.4806618364771 32.00899688889692 L 944.2446991463288 32.02465983880085 L 944.0084017765541 32.03925534268764 L 943.7717933566931 32.05278194101906 L 943.5348975473905 32.065238281146556 L 943.29773803803 32.07662311744649 L 943.0603385443649 32.08693531144472 L 942.8227228061464 32.09617383193043 L 942.5849145847508 32.10433775505929 L 942.3469376608017 32.111426264445775 L 942.1088158317933 32.11743865124486 L 941.8705729097102 32.122374314222874 L 941.6322327186458 32.12623275981763 L 941.3938190924208 32.1290136021878 L 941.155355872199 32.13071656325143 L 940.9168669041039 32.13134147271386 L 940.6783760368334 32.13088826808466 L 940.4399071192755 32.12935699468392 L 940.2014839981233 32.126747805637685 L 939.9631305154903 32.123060961862706 L 939.7248705065259 32.11829683204027 L 939.4867277970327 32.112455892579405 L 939.2487262010831 32.10553872756918 L 939.0108895186382 32.09754602872034 L 938.7732415331683 32.088478595296095 L 938.5358060092738 32.07833733403225 L 938.298606690309 32.06712325904647 L 938.0616672960086 32.054837491736905 L 937.8250115201143 32.041481260670054 L 937.5886630280065 32.027055901457885 L 937.3526454543374 32.01156285662431 L 937.1169824006679 31.9950036754609 L 936.8816974331068 31.977380013871965 L 936.6468140799548 31.958693634208984 L 936.4123558293514 31.938946405094345 L 936.1783461269266 31.91814030123451 L 935.9448083734552 31.89627740322252 L 935.7117659225183 31.873359897329962 L 935.4792420781666 31.849390075288326 L 935.2472600925907 31.824370334059843 L 935.0158431637961 31.798303175597784 L 934.7850144332826 31.77119120659627 L 934.5547969837311 31.743037138229617 L 934.3252138366945 31.713843785881192 L 934.0962879502962 31.683614068861903 L 933.8680422169342 31.652351010118263 L 933.6404994609916 31.62005773593009 L 933.4136824365543 31.5867374755979 L 933.1876138251358 31.55239356111995 L 932.9623162334088 31.517029426859075 L 932.7378121909447 31.48064860919922 L 932.5141241479608 31.443254746191855 L 932.291274473075 31.404851577192098 L 932.0692854510688 31.365442942484854 L 931.8481792806598 31.325032782900756 L 931.6279780722804 31.283625139422085 L 931.4087038458682 31.241224152778685 L 931.190378528663 31.19783406303388 L 930.9730239530146 31.153459209160495 L 930.7566618541996 31.10810402860693 L 930.5413138682472 31.06177305685345 L 930.327001529777 31.01447092695862 L 930.1137462698439 30.96620236909601 L 929.9015694137964 30.916972210081184 L 929.6904921791431 30.86678537288902 L 929.4805356734317 30.81564687616141 L 929.2717208921379 30.763561833705417 L 929.0640687165655 30.71053545398188 L 928.8575999117594 30.65657303958458 L 928.6523351244277 30.601679986709993 L 928.4482948808783 30.54586178461766 L 928.2454995849653 30.489124015081273 L 928.0439695160495 30.43147235183051 L 927.8437248269698 30.372912559983654 L 927.6447855420282 30.31345049547108 L 927.4471715549874 30.253092104449696 L 927.2509026270816 30.191843422708303 L 927.0559983850397 30.129710575064035 L 926.8624783191239 30.06669977474988 L 926.670361781179 30.00281732279336 L 926.4796679826993 29.93806960738643 L 926.2904159929053 29.872463103246687 L 926.1026247368384 29.806004370969866 L 925.9163129934677 29.738700056373812 L 925.7314993938123 29.670556889833897 L 925.5482024190783 29.601581685609993 L 925.36644039881 29.531781341165036 L 925.1862315090585 29.46116283647531 L 925.0075937705623 29.38973323333244 L 924.8305450469463 29.317499674637205 L 924.6551030429355 29.244469383685285 L 924.4812853025841 29.17064966344492 L 924.3091092075211 29.096047895826608 L 924.1385919752128 29.020671540944956 L 923.9697506572402 28.94452813637263 L 923.8026021375942 28.867625296386635 L 923.6371631309879 28.789970711206887 L 923.4734501811837 28.71157214622719 L 923.3114796593404 28.632437441238714 L 923.1512677623751 28.55257450964601 L 922.992830511344 28.471991337675682 L 922.8361837498402 28.39069598357778 L 922.6813431424093 28.308696576819962 L 922.528324172983 28.226001317274573 L 922.3771421433307 28.14261847439866 L 922.2278121715294 28.05855638640702 L 922.0803491904519 27.973823459438403 L 921.9347679462734 27.888428166714895 L 921.7910829969969 27.8023790476946 L 921.6493087109977 27.715684707217726 L 921.5094592655863 27.62835381464606 L 921.3715486455906 27.540395102996097 L 921.2355906419575 27.451817368065694 L 921.1015988503744 27.362629467554534 L 920.9695866699087 27.272840320178346 L 920.8395673016684 27.18245890477704 L 920.7115537474818 27.091494259416837 L 920.585558808598 26.999955480486477 L 920.4615950844056 26.907851721787566 L 920.339674971174 26.81519219361922 L 920.2198106608125 26.721986161857046 L 920.1020141396526 26.62824294702654 L 919.9862971872482 26.53397192337107 L 919.8726713751979 26.439182517914446 L 919.7611480659886 26.34388420951822 L 919.6517384118579 26.24808652793381 L 919.5444533536802 26.151799052849555 L 919.4393036198719 26.055031412932717 L 919.3362997253189 25.95779328486665 L 919.2354519703246 25.860094392383132 L 919.1367704395805 25.76194450528999 L 919.0402650011575 25.663353438494145 L 918.9459453055191 25.564331051020115 L 918.8538207845561 25.464887245024137 L 918.7639006506439 25.365031964803933 L 918.676193895721 25.26477519580431 L 918.5907092903897 25.164126963618635 L 918.5074553830394 25.06309733298624 L 918.4264404989914 24.961696406786004 L 918.3476727396666 24.85993432502604 L 918.2711599817753 24.75782126382973 L 918.1969098765295 24.655367434418096 L 918.124929848878 24.552583082088702 L 918.0552270967632 24.449478485191126 L 917.9878085904028 24.346063954099137 L 917.9226810715908 24.24234983017967 L 917.8598510530248 24.138346484758685 L 917.7993248176547 24.034064318084056 L 917.7411084180532 23.92951375828555 L 917.685207675812 23.824705260332024 L 917.6316281809585 23.719649304985925 L 917.5803752913977 23.614356397755248 L 917.5314541323759 23.508837067842972 L 917.484869595968 23.403101867094154 L 917.4406263405891 23.297161368940756 L 917.3987287905277 23.19102616734431 L 917.359181135504 23.084706875736533 L 917.3219873302503 22.978214125957983 L 917.2871510941164 22.871558567194896 L 917.2546759106967 22.764750864914266 L 917.2245650274828 22.657801699797318 L 917.1968214555375 22.55072176667144 L 917.1714479691951 22.443521773440715 L 917.1484471057831 22.336212440015125 L 917.1278211653687 22.228804497238592 L 917.1095722105285 22.121308685815887 L 917.0937020661431 22.013735755238574 L 917.0802123192136 21.906096462710064 L 917.0691043187034 21.798401572069917 L 917.0603791754033 21.690661852717444 L 917.0540377618204 21.582888078534804 L 917.0500807120908 21.475091026809597 L 917.048508421916 21.367281477157174 L 917.049321048524 21.25947021044265 L 917.0525185106526 21.15166800770286 L 917.0581004885582 21.04388564906824 L 917.0660664240479 20.936133912684838 L 917.0764155205346 20.8284235736365 L 917.0891467431175 20.720765402867368 L 917.1042588186846 20.613170166104805 L 917.1217502360412 20.50564862278283 L 917.1416192460599 20.398211524966168 L 917.1638638618566 20.290869616275074 L 917.1884818589881 20.183633630810963 L 917.215470775675 20.076514292083022 L 917.2448279130484 19.969522311935854 L 917.276550335419 19.862668389478316 L 917.3106348705709 19.75596321001361 L 917.3470781100789 19.649417443970762 L 917.3858764096497 19.543041745837584 L 917.4270258894853 19.43684675309525 L 917.4705224346724 19.330843085154534 L 917.5163616955924 19.225041342293892 L 917.5645390883576 19.11945210459945 L 917.6150497952689 19.01408593090698 L 917.6678887652974 18.90895335774605 L 917.7230507145906 18.804064898286363 L 917.7805301269992 18.69943104128646 L 917.84032125463 18.595062250044844 L 917.9024181184199 18.49096896135367 L 917.9668145087344 18.387161584455058 L 918.0335039859882 18.283650500000196 L 918.102479881289 18.180446059011267 L 918.1737352971048 18.07755858184637 L 918.2472631079535 17.974998357167483 L 918.3230559611151 17.872775640911602 L 918.4011062773675 17.77090065526517 L 918.4814062517443 17.669383587641857 L 918.5639478543146 17.568234589663827 L 918.6487228309874 17.46746377614659 L 918.7357227043353 17.367081224087517 L 918.8249387744437 17.26709697165817 L 918.9163621197798 17.16752101720046 L 919.0099835980853 17.068363318226865 L 919.1057938472903 16.969633790424645 L 919.20378328645 16.87134230666431 L 919.3039421167018 16.773498696012318 L 919.4062603222463 16.67611274274821 L 919.5107276713481 16.57919418538615 L 919.6173337173597 16.482752715701107 L 919.7260677997649 16.38679797775969 L 919.8369190452462 16.291339566955727 L 919.9498763687716 16.196387029050747 L 920.0649284747027 16.101949859219417 L 920.1820638579248 16.008037501100024 L 920.3012708049972 15.914659345850119 L 920.4225373953246 15.82182473120741 L 920.545851502349 15.729542940555998 L 920.6712007947625 15.637823201998053 L 920.7985727377402 15.546674687430993 L 920.927954594194 15.45610651163032 L 921.0593334260461 15.366127731338139 L 921.1926960955227 15.2767473443575 L 921.3280292664681 15.187974288652613 L 921.465319405678 15.099817441455077 L 921.6045527842527 15.012285618376144 L 921.7457154789706 14.925387572525182 L 921.8887933736797 14.839131993634357 L 922.0337721607099 14.75352750718968 L 922.1806373423032 14.668582673568462 L 922.3293742320639 14.584305987183274 L 922.4799679564268 14.500705875632526 L 922.6324034561452 14.41779069885771 L 922.786665487796 14.3355687483074 L 922.9427386253046 14.254048246108137 L 923.1006072614874 14.17323734424221 L 923.2602556096124 14.09314412373246 L 923.4216677049775 14.013776593834194 L 923.584827406508 13.935142691234265 L 923.7497183983695 13.8572502792574 L 923.9163241916004 13.780107147079892 L 924.0846281257602 13.70372100895067 L 924.2546133705955 13.628099503419893 L 924.4262629277238 13.553250192575096 L 924.5995596323322 13.479180561284988 L 924.7744861548947 13.405898016450976 L 924.9510250029049 13.333409886266475 L 925.129158522625 13.261723419484094 L 925.3088689008515 13.190845784690776 L 925.4901381666964 13.120784069590929 L 925.6729481933841 13.051545280297688 L 925.8572807000643 12.983136340632278 L 926.04311725364 12.91556409143166 L 926.2304392706106 12.848835289864443 L 926.4192280189305 12.782956608755176 L 926.6094646198824 12.717934635917073 L 926.8011300499645 12.653775873493233 L 926.9942051427936 12.590486737306431 L 927.1886705910213 12.528073556217546 L 927.3845069482649 12.466542571492676 L 927.5816946310516 12.40589993617902 L 927.7802139207779 12.346151714489569 L 927.9800449656799 12.287303881196708 L 928.1811677828197 12.22936232103472 L 928.3835622600833 12.172332828111342 L 928.5872081581916 12.116221105328341 L 928.7920851127244 12.061032763811234 L 928.998172636157 12.006773322348183 L 929.205450119909 11.953448206838118 L 929.4138968364044 11.901062749748153 L 929.6234919411456 11.849622189580344 L 929.8342144747966 11.799131670347839 L 930.0460433652796 11.749596241060488 L 930.2589574298822 11.701020855219936 L 930.4729353773754 11.653410370324293 L 930.6879558101426 11.606769547382369 L 930.9039972263198 11.561103050437595 L 931.1210380219453 11.516415446101606 L 931.3390564931207 11.4727112030976 L 931.5580308381802 11.429994691813452 L 931.777939159872 11.3882701838647 L 931.9987594675472 11.347541851667364 L 932.2204696793589 11.307813768020726 L 932.4430476244708 11.26908990570004 L 932.6664710452737 11.231374137059275 L 932.8907175996119 11.19467023364386 L 933.1157648630168 11.158981865813551 L 933.3415903309495 11.124312602375394 L 933.5681714210516 11.090665910226837 L 933.7954854754028 11.05804515400906 L 934.0235097627868 11.0264535957705 L 934.2522214809653 10.99589439464065 L 934.4815977589569 10.966370606514165 L 934.711615659325 10.937885183745248 L 934.9422521804712 10.910440974852444 L 935.1734842589356 10.884040724233767 L 935.4052887717029 10.85868707189228 L 935.6376425385153 10.83438255317209 L 935.8705223241894 10.811129598504815 L 936.103904840941 10.788930533166546 L 936.3377667507128 10.767787577045315 L 936.5720846675086 10.747702844419116 L 936.8068351597321 10.728678343744475 L 937.0419947525297 10.710715977455607 L 937.2775399301381 10.693817541774168 L 937.5134471382357 10.677984726529647 L 937.7496927862985 10.663219114990376 L 937.9862532499583 10.649522183705203 L 938.2231048733661 10.63689530235584 L 938.4602239715567 10.625339733619903 L 938.6975868328182 10.614856633044633 L 938.9351697210619 10.605447048931355 L 939.1729488781972 10.597111922230637 L 939.4109005265066 10.589852086448202 L 939.6490008710233 10.583668267561581 L 939.8872261019114 10.578561083947509 L 940.1255523968465 10.57453104632009 L 940.3639559233975 10.57157855767973 L 940.6024128414103 10.56970391327283 L 940.8408993053922 10.568907300562271 L 941.0793914668952 10.56918879920866 L 941.317865476902 10.570548381062366 L 941.5562974882105 10.572985910166338 L 941.794663657818 10.576501142769695 L 942.0329401493062 10.581093727352108 L 942.2711031352247 10.586763204658943 L 942.5091287994733 10.593509007747198 L 942.7469933396837 10.601330462042181 L 942.9846729696004 10.610226785404983 L 943.2221439214585 10.620197088210682 L 943.4593824483604 10.631240373437306 L 943.6963648266513 10.643355536765533 L 943.9330673582909 10.656541366689126 L 944.1694663732233 10.670796544636083 L 944.4055382317439 10.686119645100487 L 944.6412593268635 10.702509135785062 L 944.8766060866692 10.719963377754397 L 945.1115549766811 10.73848062559884 L 945.3460825022058 10.758059027609036 L 945.5801652106866 10.778696625961102 L 945.8137796940473 10.8003913569124 L 946.0469025910344 10.82314105100791 L 946.2795105895525 10.846943433297186 L 946.5115804289956 10.871796123561833 L 946.743088902573 10.897696636553533 L 946.9740128596305 10.924642382242572 L 947.2043292079647 10.952630666076836 L 947.4340149161327 10.981658689251262 L 947.6630470157551 11.011723548987726 L 947.8914026038127 11.042822238825309 L 948.1190588449372 11.074951648920939 L 948.3459929736939 11.108108566360384 L 948.5721822968593 11.14228967547953 L 948.7976041956896 11.177491558195946 L 949.0222361281825 11.2137106943507 L 949.2460556313322 11.250943462060357 L 949.4690403233748 11.289186138079174 L 949.6911679060267 11.328434898171416 L 949.9124161667153 11.368685817493782 L 950.1327629807984 11.409934870987883 L 950.3521863137782 11.452177933782743 L 950.5706642235047 11.495410781607283 L 950.7881748623686 11.539629091212753 L 951.0046964794874 11.584828440805035 L 951.2202074228798 11.63100431048684 L 951.434686141631 11.678152082709678 L 951.648111188048 11.726267042735614 L 951.8604612198039 11.775344379108745 L 952.0717150020727 11.82537918413633 L 952.2818514096518 11.87636645437956 L 952.4908494290759 11.928301091153903 L 952.6986881607171 11.981177901038958 L 952.9053468208754 12.034991596397802 L 953.1108047438571 12.089736795905742 L 953.315041384041 12.145408025088448 L 953.5180363179334 12.201999716869397 L 953.7197692462099 12.259506212126567 L 953.920219995746 12.317921760258358 L 954.1193685216336 12.377240519758631 L 954.3171949091862 12.437456558800873 L 954.5136793759299 12.498563855831359 L 954.7088022735817 12.560556300171305 L 954.9025440900144 12.62342769262794 L 955.0948854512078 12.68717174611441 L 955.2858071231863 12.751782086278489 L 955.4752900139414 12.81725225214 L 955.6633151753423 12.883575696736914 L 955.8498638050294 12.950745787780042 L 956.0349172482951 13.018755808316254 L 956.2184569999494 13.087598957400173 L 956.40046470617 13.157268350774258 L 956.5809221663382 13.22775702155723 L 956.759811334858 13.29905792094075 L 956.9371143229617 13.371163918894297 L 957.1128134004986 13.444067804878166 L 957.2868909977069 13.517762288564509 L 957.4593297069722 13.59224000056637 L 957.6301122845672 13.667493493174614 L 957.7992216523764 13.743515241102692 L 957.966640899604 13.82029764223916 L 958.1323532844649 13.89783301840789 L 958.2963422358586 13.97611361613588 L 958.4585913550266 14.055131607428589 L 958.6190844171922 14.134879090552737 L 958.777805373183 14.215348090826463 L 958.9347383510355 14.296530561416805 L 959.0898676575829 14.37841838414435 L 959.2431777800238 14.461003370295066 L 959.3946533874735 14.54427726143916 L 959.5442793324976 14.628231730256909 L 959.6920406526264 14.712858381371396 L 959.8379225718509 14.79814875218803 L 959.9819105021007 14.884094313740805 L 960.123990044703 14.970686471545188 L 960.2641469918217 15.057916566457557 L 960.4023673278789 15.145775875541112 L 960.5386372309563 15.234255612938162 L 960.672943074177 15.323346930748698 L 960.8052714270689 15.413040919915185 L 960.9356090569065 15.503328611113446 L 961.0639429300359 15.594200975649606 L 961.1902602131765 15.685648926362934 L 961.3145482747052 15.777663318534564 L 961.4367946859196 15.870234950801965 L 961.5569872222803 15.963354566079044 L 961.675113864634 16.05701285248188 L 961.7911628004147 16.151200444259874 L 961.9051224248255 16.245907922732343 L 962.0169813419992 16.341125817230363 L 962.1267283661371 16.436844606043827 L 962.2343525226282 16.53305471737362 L 962.3398430491467 16.629746530288788 L 962.4431893967277 16.72691037568861 L 962.5443812308226 16.824536537269527 L 962.6434084323325 16.922615252496723 L 962.7402610986195 17.02113671358041 L 962.8349295444979 17.120091068456585 L 962.9274043032018 17.21946842177222 L 963.0176761273326 17.3192588358748 L 963.1057359897829 17.419452331806063 L 963.19157508464 17.520038890299922 L 963.275184828066 17.621008452784345 L 963.356556859156 17.722350922387225 L 963.4356830407748 17.824056164946054 L 963.5125554603703 17.926114010021326 L 963.5871664307645 18.028514251913588 L 963.6595084909225 18.13124665068398 L 963.7295744066987 18.234300933178236 L 963.7973571715597 18.337666794053984 L 963.8628500072857 18.441333896811276 L 963.9260463646476 18.545291874826223 L 963.9869399240623 18.649530332387656 L 964.0455245962247 18.754038845736684 L 964.1017945227163 18.858806964109064 L 964.1557440765915 18.963824210780263 L 964.2073678629398 19.06908008411313 L 964.2566607194254 19.174564058608038 L 964.3036177168041 19.280265585955448 L 964.3482341594149 19.38617409609071 L 964.390505585651 19.492278998251063 L 964.4304277684048 19.59856968203471 L 964.4679967154915 19.705035518461855 L 964.5032086700475 19.81166586103757 L 964.5360601109069 19.91845004681646 L 964.5665477529527 20.02537739746893 L 964.5946685474464 20.132437220349026 L 964.6204196823318 20.23961880956367 L 964.643798582517 20.346911447043258 L 964.6648029101312 20.45430440361346 L 964.6834305647595 20.561786940068103 L 964.6996796836518 20.66934830824312 L 964.7135486419097 20.77697775209132 L 964.725036052649 20.88466450875801 L 964.7341407671381 20.992397809657266 L 964.7408618749133 21.10016688154877 L 964.7451987038693 21.207960947615145 L 964.7471508203269 21.315769228539615 M 964.7472718103828 55.654037643100004 L 964.7460793504791 55.76184818801663 L 964.7425020900131 55.869647951968595 L 964.7365403867078 55.97742615506936 L 964.7281948367284 56.085172019588406 L 964.7174662746232 56.19287477102909 L 964.7043557732394 56.300523639206006 L 964.6888646436162 56.40810785932205 L 964.6709944348536 56.51561667304486 L 964.6507469339575 56.62303932958265 L 964.6281241656613 56.7303650867593 L 964.603128392223 56.83758321208852 L 964.575762113199 56.94468298384712 L 964.5460280651944 57.051653692147184 L 964.5139292215893 57.15848464000702 L 964.4794687922412 57.26516514442086 L 964.4426502231644 57.37168453742718 L 964.403477196185 57.47803216717543 L 964.3619536285732 57.58419739899126 L 964.3180836726513 57.69016961643997 L 964.2718717153779 57.79593822238811 L 964.2233223779106 57.90149264006323 L 964.1724405151425 58.00682231411153 L 964.1192312152176 58.11191671165338 L 964.0636997990214 58.216765323336595 L 964.0058518196494 58.321357664387385 L 963.9456930618512 58.42568327565881 L 963.8832295414526 58.52973172467667 L 963.8184675047534 58.633492606682786 L 963.7514134279033 58.73695554567541 L 963.6820740162544 58.84011019544686 L 963.6104562036898 58.942946240618134 L 963.5365671519311 59.0454533976704 L 963.4604142498221 59.14762141597338 L 963.3820051125892 59.24944007881039 L 963.3013475810811 59.35089920439998 L 963.2184497209837 59.45198864691415 L 963.1333198220138 59.55269829749289 L 963.0459663970904 59.653018085255056 L 962.9563981814832 59.75293797830548 L 962.8646241319392 59.852447984738134 L 962.7706534257868 59.951538153635276 L 962.6744954600182 60.05019857606261 L 962.5761598503501 60.1484193860601 L 962.4756564302613 60.2461907616286 L 962.3729952500101 60.34350292571202 L 962.2681865756291 60.44034614717507 L 962.1612408878982 60.536710741776275 L 962.0521688812972 60.632587073136506 L 961.940981462936 60.727965553702504 L 961.8276897514634 60.8228366457057 L 961.7123050759565 60.91719086211595 L 961.5948389747864 61.01101876759025 L 961.4753031944655 61.10431097941624 L 961.3537096884722 61.197058168450475 L 961.2300706160559 61.28925106005134 L 961.1043983410204 61.38088043500651 L 960.976705430489 61.47193713045484 L 960.847004653646 61.56241204080266 L 960.715308980461 61.652296118634354 L 960.5816315803918 61.74158037561702 L 960.4459858210669 61.83025588339937 L 960.308385266949 61.91831377450452 L 960.1688436779791 62.005745243216744 L 960.0273750081998 62.09254154646202 L 959.88399340436 62.17869400468237 L 959.7387132045009 62.26419400270376 L 959.591548936521 62.34903299059763 L 959.4425153167249 62.4332024845359 L 959.29162724835 62.5166940676393 L 959.1388998200777 62.59949939081912 L 958.9843483045233 62.68161017361202 L 958.8279881567099 62.76301820500817 L 958.6698350125216 62.84371534427226 L 958.5099046871413 62.923693521757606 L 958.3482131734681 63.002944739713115 L 958.1847766405189 63.081461073083034 L 958.0196114318103 63.159234670299455 L 957.852734063726 63.23625775406746 L 957.6841612238635 63.312522622142865 L 957.5139097693664 63.388021648102416 L 957.3419967252382 63.462747282106434 L 957.1684392826402 63.53669205165379 L 956.9932547971719 63.60984856232914 L 956.8164607871358 63.68220949854239 L 956.6380749317858 63.75376762426022 L 956.4581150695585 63.82451578372968 L 956.2765991962905 63.89444690219379 L 956.0935454634175 63.96355398659898 L 955.9089721761605 64.03183012629438 L 955.7228977916943 64.09926849372295 L 955.5353409173024 64.16586234510412 L 955.3463203085157 64.23160502110825 L 955.1558548672378 64.29648994752253 L 954.963963639854 64.36051063590838 L 954.7706658153272 64.42366068425032 L 954.5759807232787 64.48593377759616 L 954.3799278320555 64.54732368868842 L 954.1825267467833 64.60782427858717 L 953.9837972074063 64.66742949728383 L 953.7837590867125 64.72613338430622 L 953.5824323883476 64.78393006931454 L 953.3798372448135 64.84081377268845 L 953.1759939154557 64.89677880610503 L 952.9709227844374 64.95181957310757 L 952.7646443587007 65.00593056966522 L 952.5571792659164 65.05910638472345 L 952.3485482524206 65.11134170074504 L 952.1387721811412 65.16263129424193 L 951.9278720295102 65.2129700362975 L 951.7158688873672 65.26235289307951 L 951.5027839548495 65.31077492634341 L 951.2886385402732 65.35823129392625 L 951.0734540580008 65.40471725023082 L 950.8572520263016 65.4502281467002 L 950.6400540651985 65.49475943228269 L 950.4218818943065 65.53830665388683 L 950.2027573306609 65.58086545682676 L 949.9827022865355 65.62243158525764 L 949.7617387672515 65.66300088260128 L 949.5398888689765 65.70256929196175 L 949.3171747765155 65.74113285653107 L 949.093618761092 65.77868771998494 L 948.8692431781216 65.8152301268683 L 948.6440704649752 65.8507564229709 L 948.4181231387369 65.88526305569277 L 948.1914237939507 65.91874657439936 L 947.9639951003622 65.95120363076673 L 947.7358598006514 65.98263097911627 L 947.5070407081581 66.01302547673934 L 947.2775607046008 66.0423840842115 L 947.0474427377887 66.07070386569649 L 946.8167098193267 66.09798198923974 L 946.5853850223143 66.12421572705163 L 946.3534914790384 66.14940245578025 L 946.1210523786604 66.17353965677371 L 945.8880909648963 66.19662491633201 L 945.6546305336933 66.21865592594847 L 945.4206944309003 66.23963048254045 L 945.1863060499323 66.25954648866978 L 944.9514888294324 66.27840195275246 L 944.7162662509268 66.29619498925778 L 944.4806618364771 66.31292381889692 L 944.2446991463288 66.32858676880085 L 944.0084017765541 66.34318227268764 L 943.7717933566931 66.35670887101907 L 943.5348975473905 66.36916521114655 L 943.29773803803 66.38055004744649 L 943.0603385443649 66.39086224144472 L 942.8227228061464 66.40010076193043 L 942.5849145847508 66.4082646850593 L 942.3469376608017 66.41535319444577 L 942.1088158317933 66.42136558124486 L 941.8705729097102 66.42630124422287 L 941.6322327186458 66.43015968981763 L 941.3938190924208 66.43294053218779 L 941.155355872199 66.43464349325143 L 940.9168669041039 66.43526840271386 L 940.6783760368334 66.43481519808466 L 940.4399071192755 66.43328392468392 L 940.2014839981233 66.43067473563768 L 939.9631305154903 66.4269878918627 L 939.7248705065259 66.42222376204028 L 939.4867277970327 66.41638282257941 L 939.2487262010831 66.40946565756917 L 939.0108895186382 66.40147295872033 L 938.7732415331683 66.3924055252961 L 938.5358060092738 66.38226426403224 L 938.298606690309 66.37105018904646 L 938.0616672960086 66.35876442173691 L 937.8250115201143 66.34540819067004 L 937.5886630280065 66.33098283145789 L 937.3526454543374 66.31548978662431 L 937.1169824006679 66.2989306054609 L 936.8816974331068 66.28130694387197 L 936.6468140799548 66.26262056420899 L 936.4123558293514 66.24287333509434 L 936.1783461269266 66.2220672312345 L 935.9448083734552 66.20020433322252 L 935.7117659225183 66.17728682732997 L 935.4792420781666 66.15331700528833 L 935.2472600925907 66.12829726405984 L 935.0158431637961 66.10223010559778 L 934.7850144332826 66.07511813659627 L 934.5547969837311 66.04696406822961 L 934.3252138366945 66.0177707158812 L 934.0962879502962 65.9875409988619 L 933.8680422169342 65.95627794011827 L 933.6404994609916 65.92398466593009 L 933.4136824365543 65.8906644055979 L 933.1876138251358 65.85632049111994 L 932.9623162334088 65.82095635685907 L 932.7378121909447 65.78457553919922 L 932.5141241479608 65.74718167619186 L 932.291274473075 65.7087785071921 L 932.0692854510688 65.66936987248485 L 931.8481792806598 65.62895971290075 L 931.6279780722804 65.58755206942209 L 931.4087038458682 65.54515108277869 L 931.190378528663 65.50176099303388 L 930.9730239530146 65.45738613916049 L 930.7566618541996 65.41203095860693 L 930.5413138682472 65.36569998685346 L 930.327001529777 65.31839785695863 L 930.1137462698439 65.27012929909601 L 929.9015694137964 65.22089914008119 L 929.6904921791431 65.17071230288902 L 929.4805356734317 65.11957380616141 L 929.2717208921379 65.06748876370541 L 929.0640687165655 65.01446238398188 L 928.8575999117594 64.96049996958457 L 928.6523351244277 64.90560691670998 L 928.4482948808783 64.84978871461766 L 928.2454995849653 64.79305094508128 L 928.0439695160495 64.73539928183051 L 927.8437248269698 64.67683948998365 L 927.6447855420282 64.61737742547108 L 927.4471715549874 64.5570190344497 L 927.2509026270816 64.4957703527083 L 927.0559983850397 64.43363750506404 L 926.8624783191239 64.37062670474988 L 926.670361781179 64.30674425279335 L 926.4796679826993 64.24199653738643 L 926.2904159929053 64.17639003324669 L 926.1026247368384 64.10993130096986 L 925.9163129934677 64.04262698637382 L 925.7314993938123 63.97448381983389 L 925.5482024190783 63.90550861560999 L 925.36644039881 63.83570827116503 L 925.1862315090585 63.76508976647531 L 925.0075937705623 63.69366016333244 L 924.8305450469463 63.62142660463721 L 924.6551030429355 63.54839631368529 L 924.4812853025841 63.474576593444915 L 924.3091092075211 63.39997482582661 L 924.1385919752128 63.324598470944956 L 923.9697506572402 63.24845506637263 L 923.8026021375942 63.17155222638664 L 923.6371631309879 63.09389764120689 L 923.4734501811837 63.015499076227194 L 923.3114796593404 62.93636437123872 L 923.1512677623751 62.85650143964601 L 922.992830511344 62.77591826767568 L 922.8361837498402 62.694622913577774 L 922.6813431424093 62.61262350681996 L 922.528324172983 62.529928247274576 L 922.3771421433307 62.44654540439866 L 922.2278121715294 62.36248331640702 L 922.0803491904519 62.2777503894384 L 921.9347679462734 62.19235509671489 L 921.7910829969969 62.1063059776946 L 921.6493087109977 62.01961163721772 L 921.5094592655863 61.932280744646064 L 921.3715486455906 61.8443220329961 L 921.2355906419575 61.75574429806569 L 921.1015988503744 61.66655639755454 L 920.9695866699087 61.57676725017834 L 920.8395673016684 61.48638583477704 L 920.7115537474818 61.39542118941684 L 920.585558808598 61.30388241048648 L 920.4615950844056 61.21177865178757 L 920.339674971174 61.11911912361922 L 920.2198106608125 61.02591309185704 L 920.1020141396526 60.93216987702654 L 919.9862971872482 60.83789885337107 L 919.8726713751979 60.74310944791445 L 919.7611480659886 60.64781113951822 L 919.6517384118579 60.55201345793381 L 919.5444533536802 60.45572598284956 L 919.4393036198719 60.358958342932716 L 919.3362997253189 60.26172021486665 L 919.2354519703246 60.16402132238313 L 919.1367704395805 60.065871435289985 L 919.0402650011575 59.967280368494144 L 918.9459453055191 59.868257981020115 L 918.8538207845561 59.76881417502413 L 918.7639006506439 59.66895889480393 L 918.676193895721 59.568702125804315 L 918.5907092903897 59.46805389361863 L 918.5074553830394 59.36702426298624 L 918.4264404989914 59.265623336786 L 918.3476727396666 59.16386125502604 L 918.2711599817753 59.06174819382973 L 918.1969098765295 58.95929436441809 L 918.124929848878 58.8565100120887 L 918.0552270967632 58.753405415191125 L 917.9878085904028 58.64999088409914 L 917.9226810715908 58.54627676017967 L 917.8598510530248 58.44227341475869 L 917.7993248176547 58.33799124808406 L 917.7411084180532 58.233440688285555 L 917.685207675812 58.12863219033202 L 917.6316281809585 58.023576234985924 L 917.5803752913977 57.91828332775525 L 917.5314541323759 57.81276399784297 L 917.484869595968 57.707028797094154 L 917.4406263405891 57.60108829894075 L 917.3987287905277 57.49495309734431 L 917.359181135504 57.38863380573653 L 917.3219873302503 57.28214105595798 L 917.2871510941164 57.17548549719489 L 917.2546759106967 57.068677794914265 L 917.2245650274828 56.96172862979732 L 917.1968214555375 56.85464869667144 L 917.1714479691951 56.74744870344071 L 917.1484471057831 56.64013937001512 L 917.1278211653687 56.53273142723859 L 917.1095722105285 56.425235615815886 L 917.0937020661431 56.317662685238574 L 917.0802123192136 56.21002339271006 L 917.0691043187034 56.102328502069916 L 917.0603791754033 55.99458878271744 L 917.0540377618204 55.8868150085348 L 917.0500807120908 55.7790179568096 L 917.048508421916 55.671208407157174" stroke-miterlimit="10" stroke-width="2.7769845610000004" stroke-dasharray=""/></g><g><g/><text fill="black" stroke="none" font-family="sans-serif" font-size="11pt" font-style="normal" font-weight="normal" text-decoration="normal" x="897.2364675216797" y="83.962944962" text-anchor="start" dominant-baseline="alphabetic" xml:space="preserve">База данных</text></g></g><g><path fill="white" stroke="black" paint-order="fill stroke markers" d=" M 73.50841485 97.03110760199999 L 89.84361814999998 97.03110760199999 L 89.84361814999998 142.769676842 L 73.50841485 142.769676842 L 73.50841485 97.03110760199999" stroke-miterlimit="10" stroke-width="1.3612669416666667" stroke-dasharray=""/><path fill="white" stroke="black" paint-order="fill stroke markers" d=" M 400.2760017139974 142.769676842 L 416.6112050139974 142.769676842 L 416.6112050139974 325.723953802 L 400.2760017139974 325.723953802 L 400.2760017139974 142.769676842" stroke-miterlimit="10" stroke-width="1.3612669416666667" stroke-dasharray=""/><path fill="white" stroke="black" paint-order="fill stroke markers" d=" M 658.682794510612 188.508246082 L 675.0179978106121 188.508246082 L 675.0179978106121 325.723953802 L 658.682794510612 325.723953802 L 658.682794510612 188.508246082" stroke-miterlimit="10" stroke-width="1.3612669416666667" stroke-dasharray=""/><path fill="white" stroke="black" paint-order="fill stroke markers" d=" M 932.7302733423828 234.246815322 L 949.0654766423829 234.246815322 L 949.0654766423829 279.985384562 L 932.7302733423828 279.985384562 L 932.7302733423828 234.246815322" stroke-miterlimit="10" stroke-width="1.3612669416666667" stroke-dasharray=""/><path fill="white" stroke="black" paint-order="fill stroke markers" d=" M 73.50841485 325.723953802 L 89.84361814999998 325.723953802 L 89.84361814999998 371.462523042 L 73.50841485 371.462523042 L 73.50841485 325.723953802" stroke-miterlimit="10" stroke-width="1.3612669416666667" stroke-dasharray=""/><path fill="white" stroke="black" paint-order="fill stroke markers" d=" M 400.2760017139974 371.462523042 L 416.6112050139974 371.462523042 L 416.6112050139974 554.416800002 L 400.2760017139974 554.416800002 L 400.2760017139974 371.462523042" stroke-miterlimit="10" stroke-width="1.3612669416666667" stroke-dasharray=""/><path fill="white" stroke="black" paint-order="fill stroke markers" d=" M 658.682794510612 417.201092282 L 675.0179978106121 417.201092282 L 675.0179978106121 554.416800002 L 658.682794510612 554.416800002 L 658.682794510612 417.201092282" stroke-miterlimit="10" stroke-width="1.3612669416666667" stroke-dasharray=""/><path fill="white" stroke="black" paint-order="fill stroke markers" d=" M 932.7302733423828 462.939661522 L 949.0654766423829 462.939661522 L 949.0654766423829 508.678230762 L 932.7302733423828 508.678230762 L 932.7302733423828 462.939661522" stroke-miterlimit="10" stroke-width="1.3612669416666667" stroke-dasharray=""/><path fill="white" stroke="black" paint-order="fill stroke markers" d=" M 73.50841485 554.416800002 L 89.84361814999998 554.416800002 L 89.84361814999998 1145.7511594619996 L 73.50841485 1145.7511594619996 L 73.50841485 554.416800002" stroke-miterlimit="10" stroke-width="1.3612669416666667" stroke-dasharray=""/><path fill="white" stroke="black" paint-order="fill stroke markers" d=" M 400.2760017139974 600.1553692419999 L 416.6112050139974 600.1553692419999 L 416.6112050139974 1145.7511594619996 L 400.2760017139974 1145.7511594619996 L 400.2760017139974 600.1553692419999" stroke-miterlimit="10" stroke-width="1.3612669416666667" stroke-dasharray=""/><path fill="white" stroke="black" paint-order="fill stroke markers" d=" M 658.682794510612 645.8939384819998 L 675.0179978106121 645.8939384819998 L 675.0179978106121 1100.0125902219995 L 658.682794510612 1100.0125902219995 L 658.682794510612 645.8939384819998" stroke-miterlimit="10" stroke-width="1.3612669416666667" stroke-dasharray=""/><path fill="white" stroke="black" paint-order="fill stroke markers" d=" M 932.7302733423828 1008.5354517419994 L 949.0654766423829 1008.5354517419994 L 949.0654766423829 1054.2740209819995 L 932.7302733423828 1054.2740209819995 L 932.7302733423828 1008.5354517419994" stroke-miterlimit="10" stroke-width="1.3612669416666667" stroke-dasharray=""/><g><rect fill="white" stroke="none" x="147.68827241795574" y="121.533912552" width="206.96927131714844" height="21.23576429"/><text fill="black" stroke="none" font-family="sans-serif" font-size="11pt" font-style="normal" font-weight="normal" text-decoration="normal" x="150.13855291295573" y="136.235595522" text-anchor="start" dominant-baseline="alphabetic" xml:space="preserve">Отправить запрос на витрину</text><g><text fill="black" stroke="none" font-family="sans-serif" font-size="11pt" font-style="normal" font-weight="bold" text-decoration="normal" x="137.91235662389323" y="136.235595522" text-anchor="start" dominant-baseline="alphabetic" xml:space="preserve">1 </text></g></g><g><path fill="none" stroke="black" paint-order="fill stroke markers" d=" M 89.84361814999998 142.769676842 L 386.82668433033075 142.769676842" stroke-miterlimit="10" stroke-width="1.3612669416666667" stroke-dasharray=""/><g transform="translate(400.2760017139974,142.769676842) translate(-400.2760017139974,-142.769676842)"><path fill="black" stroke="none" paint-order="stroke fill markers" d=" M 386.6633322973307 135.96334213366666 L 400.2760017139974 142.769676842 L 386.6633322973307 149.57601155033333 Z"/></g></g><g><rect fill="white" stroke="none" x="482.23681936496087" y="167.272481792" width="123.04655708375" height="21.23576429"/><text fill="black" stroke="none" font-family="sans-serif" font-size="11pt" font-style="normal" font-weight="normal" text-decoration="normal" x="484.6870998599609" y="181.974164762" text-anchor="start" dominant-baseline="alphabetic" xml:space="preserve">GET /api/products</text><g><text fill="black" stroke="none" font-family="sans-serif" font-size="11pt" font-style="normal" font-weight="bold" text-decoration="normal" x="472.4609035708984" y="181.974164762" text-anchor="start" dominant-baseline="alphabetic" xml:space="preserve">2 </text></g></g><g><path fill="none" stroke="black" paint-order="fill stroke markers" d=" M 416.6112050139974 188.508246082 L 645.2334771269453 188.508246082" stroke-miterlimit="10" stroke-width="1.3612669416666667" stroke-dasharray=""/><g transform="translate(658.682794510612,188.508246082) translate(-658.682794510612,-188.508246082)"><path fill="black" stroke="none" paint-order="stroke fill markers" d=" M 645.0701250939453 181.70191137366666 L 658.682794510612 188.508246082 L 645.0701250939453 195.31458079033334 Z"/></g></g><g><rect fill="white" stroke="none" x="714.8204310092318" y="213.011051032" width="190.33360542359375" height="21.23576429"/><text fill="black" stroke="none" font-family="sans-serif" font-size="11pt" font-style="normal" font-weight="normal" text-decoration="normal" x="717.2707115042318" y="227.712734002" text-anchor="start" dominant-baseline="alphabetic" xml:space="preserve">Запросить данные товаров</text><g><text fill="black" stroke="none" font-family="sans-serif" font-size="11pt" font-style="normal" font-weight="bold" text-decoration="normal" x="705.0445152151693" y="227.712734002" text-anchor="start" dominant-baseline="alphabetic" xml:space="preserve">3 </text></g></g><g><path fill="none" stroke="black" paint-order="fill stroke markers" d=" M 675.0179978106121 234.246815322 L 919.2809559587162 234.246815322" stroke-miterlimit="10" stroke-width="1.3612669416666667" stroke-dasharray=""/><g transform="translate(932.7302733423828,234.246815322) translate(-932.7302733423828,-234.246815322)"><path fill="black" stroke="none" paint-order="stroke fill markers" d=" M 919.1176039257161 227.44048061366667 L 932.7302733423828 234.246815322 L 919.1176039257161 241.05315003033334 Z"/></g></g><g><rect fill="white" stroke="none" x="725.4861490878451" y="258.74962027199996" width="169.0021692663672" height="21.23576429"/><text fill="black" stroke="none" font-family="sans-serif" font-size="11pt" font-style="normal" font-weight="normal" text-decoration="normal" x="727.9364295828451" y="273.45130324199994" text-anchor="start" dominant-baseline="alphabetic" xml:space="preserve">Вернуть список товаров</text><g><text fill="black" stroke="none" font-family="sans-serif" font-size="11pt" font-style="normal" font-weight="bold" text-decoration="normal" x="715.7102332937826" y="273.45130324199994" text-anchor="start" dominant-baseline="alphabetic" xml:space="preserve">4 </text></g></g><g><path fill="none" stroke="black" paint-order="fill stroke markers" d=" M 932.7302733423828 279.985384562 L 688.4673151942787 279.985384562" stroke-miterlimit="10" stroke-width="1.3612669416666667" stroke-dasharray="6.53408132"/><g transform="translate(675.0179978106121,279.985384562) translate(-675.0179978106121,-279.985384562)"><path fill="black" stroke="none" paint-order="stroke fill markers" d=" M 688.6306672272788 273.17904985366664 L 675.0179978106121 279.985384562 L 688.6306672272788 286.7917192703333 Z"/></g></g><g><rect fill="white" stroke="none" x="487.5983000778515" y="304.48818951199996" width="112.32359565796875" height="21.23576429"/><text fill="black" stroke="none" font-family="sans-serif" font-size="11pt" font-style="normal" font-weight="normal" text-decoration="normal" x="490.0485805728515" y="319.18987248199994" text-anchor="start" dominant-baseline="alphabetic" xml:space="preserve">Список товаров</text><g><text fill="black" stroke="none" font-family="sans-serif" font-size="11pt" font-style="normal" font-weight="bold" text-decoration="normal" x="477.822384283789" y="319.18987248199994" text-anchor="start" dominant-baseline="alphabetic" xml:space="preserve">5 </text></g></g><g><path fill="none" stroke="black" paint-order="fill stroke markers" d=" M 658.682794510612 325.723953802 L 430.06052239766404 325.723953802" stroke-miterlimit="10" stroke-width="1.3612669416666667" stroke-dasharray="6.53408132"/><g transform="translate(416.6112050139974,325.723953802) translate(-416.6112050139974,-325.723953802)"><path fill="black" stroke="none" paint-order="stroke fill markers" d=" M 430.22387443066407 318.91761909366664 L 416.6112050139974 325.723953802 L 430.22387443066407 332.5302885103333 Z"/></g></g><g><rect fill="white" stroke="none" x="197.8457583798698" y="350.22675875199997" width="106.65429939332031" height="21.23576429"/><text fill="black" stroke="none" font-family="sans-serif" font-size="11pt" font-style="normal" font-weight="normal" text-decoration="normal" x="200.2960388748698" y="364.92844172199995" text-anchor="start" dominant-baseline="alphabetic" xml:space="preserve">Выбрать товар</text><g><text fill="black" stroke="none" font-family="sans-serif" font-size="11pt" font-style="normal" font-weight="bold" text-decoration="normal" x="188.0698425858073" y="364.92844172199995" text-anchor="start" dominant-baseline="alphabetic" xml:space="preserve">6 </text></g></g><g><path fill="none" stroke="black" paint-order="fill stroke markers" d=" M 89.84361814999998 371.462523042 L 386.82668433033075 371.462523042" stroke-miterlimit="10" stroke-width="1.3612669416666667" stroke-dasharray=""/><g transform="translate(400.2760017139974,371.462523042) translate(-400.2760017139974,-371.462523042)"><path fill="black" stroke="none" paint-order="stroke fill markers" d=" M 386.6633322973307 364.65618833366665 L 400.2760017139974 371.462523042 L 386.6633322973307 378.2688577503333 Z"/></g></g><g><rect fill="white" stroke="none" x="469.59902487033196" y="395.96532799199997" width="148.32214607300781" height="21.23576429"/><text fill="black" stroke="none" font-family="sans-serif" font-size="11pt" font-style="normal" font-weight="normal" text-decoration="normal" x="472.049305365332" y="410.66701096199995" text-anchor="start" dominant-baseline="alphabetic" xml:space="preserve">GET /api/products/{id}</text><g><text fill="black" stroke="none" font-family="sans-serif" font-size="11pt" font-style="normal" font-weight="bold" text-decoration="normal" x="459.8231090762695" y="410.66701096199995" text-anchor="start" dominant-baseline="alphabetic" xml:space="preserve">7 </text></g></g><g><path fill="none" stroke="black" paint-order="fill stroke markers" d=" M 416.6112050139974 417.201092282 L 645.2334771269453 417.201092282" stroke-miterlimit="10" stroke-width="1.3612669416666667" stroke-dasharray=""/><g transform="translate(658.682794510612,417.201092282) translate(-658.682794510612,-417.201092282)"><path fill="black" stroke="none" paint-order="stroke fill markers" d=" M 645.0701250939453 410.39475757366665 L 658.682794510612 417.201092282 L 645.0701250939453 424.00742699033333 Z"/></g></g><g><rect fill="white" stroke="none" x="712.6013910922396" y="441.703897232" width="194.77168525757813" height="21.23576429"/><text fill="black" stroke="none" font-family="sans-serif" font-size="11pt" font-style="normal" font-weight="normal" text-decoration="normal" x="715.0516715872396" y="456.40558020199995" text-anchor="start" dominant-baseline="alphabetic" xml:space="preserve">Запросить данные о товаре</text><g><text fill="black" stroke="none" font-family="sans-serif" font-size="11pt" font-style="normal" font-weight="bold" text-decoration="normal" x="702.8254752981771" y="456.40558020199995" text-anchor="start" dominant-baseline="alphabetic" xml:space="preserve">8 </text></g></g><g><path fill="none" stroke="black" paint-order="fill stroke markers" d=" M 675.0179978106121 462.939661522 L 919.2809559587162 462.939661522" stroke-miterlimit="10" stroke-width="1.3612669416666667" stroke-dasharray=""/><g transform="translate(932.7302733423828,462.939661522) translate(-932.7302733423828,-462.939661522)"><path fill="black" stroke="none" paint-order="stroke fill markers" d=" M 919.1176039257161 456.13332681366666 L 932.7302733423828 462.939661522 L 919.1176039257161 469.74599623033333 Z"/></g></g><g><rect fill="white" stroke="none" x="728.3064768466342" y="487.442466472" width="163.36151374878906" height="21.23576429"/><text fill="black" stroke="none" font-family="sans-serif" font-size="11pt" font-style="normal" font-weight="normal" text-decoration="normal" x="730.7567573416342" y="502.14414944199996" text-anchor="start" dominant-baseline="alphabetic" xml:space="preserve">Вернуть детали товара</text><g><text fill="black" stroke="none" font-family="sans-serif" font-size="11pt" font-style="normal" font-weight="bold" text-decoration="normal" x="718.5305610525717" y="502.14414944199996" text-anchor="start" dominant-baseline="alphabetic" xml:space="preserve">9 </text></g></g><g><path fill="none" stroke="black" paint-order="fill stroke markers" d=" M 932.7302733423828 508.678230762 L 688.4673151942787 508.678230762" stroke-miterlimit="10" stroke-width="1.3612669416666667" stroke-dasharray="6.53408132"/><g transform="translate(675.0179978106121,508.678230762) translate(-675.0179978106121,-508.678230762)"><path fill="black" stroke="none" paint-order="stroke fill markers" d=" M 688.6306672272788 501.87189605366666 L 675.0179978106121 508.678230762 L 688.6306672272788 515.4845654703333 Z"/></g></g><g><rect fill="white" stroke="none" x="495.43652639621087" y="533.1810357119999" width="104.80032600464844" height="21.23576429"/><text fill="black" stroke="none" font-family="sans-serif" font-size="11pt" font-style="normal" font-weight="normal" text-decoration="normal" x="497.8868068912109" y="547.8827186819999" text-anchor="start" dominant-baseline="alphabetic" xml:space="preserve">Детали товара</text><g><text fill="black" stroke="none" font-family="sans-serif" font-size="11pt" font-style="normal" font-weight="bold" text-decoration="normal" x="477.50742761874994" y="547.8827186819999" text-anchor="start" dominant-baseline="alphabetic" xml:space="preserve">10 </text></g></g><g><path fill="none" stroke="black" paint-order="fill stroke markers" d=" M 658.682794510612 554.416800002 L 430.06052239766404 554.416800002" stroke-miterlimit="10" stroke-width="1.3612669416666667" stroke-dasharray="6.53408132"/><g transform="translate(416.6112050139974,554.416800002) translate(-416.6112050139974,-554.416800002)"><path fill="black" stroke="none" paint-order="stroke fill markers" d=" M 430.22387443066407 547.6104652936666 L 416.6112050139974 554.416800002 L 430.22387443066407 561.2231347103333 Z"/></g></g><g><rect fill="white" stroke="none" x="164.1521319760612" y="578.9196049519999" width="181.38585151734375" height="21.23576429"/><text fill="black" stroke="none" font-family="sans-serif" font-size="11pt" font-style="normal" font-weight="normal" text-decoration="normal" x="166.6024124710612" y="593.6212879219999" text-anchor="start" dominant-baseline="alphabetic" xml:space="preserve">Добавить товар в корзину</text><g><text fill="black" stroke="none" font-family="sans-serif" font-size="11pt" font-style="normal" font-weight="bold" text-decoration="normal" x="147.03191686559245" y="593.6212879219999" text-anchor="start" dominant-baseline="alphabetic" xml:space="preserve">11 </text></g></g><g><path fill="none" stroke="black" paint-order="fill stroke markers" d=" M 89.84361814999998 600.1553692419999 L 386.82668433033075 600.1553692419999" stroke-miterlimit="10" stroke-width="1.3612669416666667" stroke-dasharray=""/><g transform="translate(400.2760017139974,600.1553692419999) translate(-400.2760017139974,-600.1553692419999)"><path fill="black" stroke="none" paint-order="stroke fill markers" d=" M 386.6633322973307 593.3490345336666 L 400.2760017139974 600.1553692419999 L 386.6633322973307 606.9617039503332 Z"/></g></g><g><rect fill="white" stroke="none" x="497.3191329025585" y="624.6581741919998" width="101.03511299195313" height="21.23576429"/><text fill="black" stroke="none" font-family="sans-serif" font-size="11pt" font-style="normal" font-weight="normal" text-decoration="normal" x="499.76941339755854" y="639.3598571619998" text-anchor="start" dominant-baseline="alphabetic" xml:space="preserve">POST /api/cart</text><g><text fill="black" stroke="none" font-family="sans-serif" font-size="11pt" font-style="normal" font-weight="bold" text-decoration="normal" x="479.3900341250976" y="639.3598571619998" text-anchor="start" dominant-baseline="alphabetic" xml:space="preserve">12 </text></g></g><g><path fill="none" stroke="black" paint-order="fill stroke markers" d=" M 416.6112050139974 645.8939384819998 L 645.2334771269453 645.8939384819998" stroke-miterlimit="10" stroke-width="1.3612669416666667" stroke-dasharray=""/><g transform="translate(658.682794510612,645.8939384819998) translate(-658.682794510612,-645.8939384819998)"><path fill="black" stroke="none" paint-order="stroke fill markers" d=" M 645.0701250939453 639.0876037736665 L 658.682794510612 645.8939384819998 L 645.0701250939453 652.7002731903332 Z"/></g></g><g><rect fill="white" stroke="none" x="723.0881917951693" y="670.3967434319998" width="190.1188684851172" height="21.23576429"/><text fill="black" stroke="none" font-family="sans-serif" font-size="11pt" font-style="normal" font-weight="normal" text-decoration="normal" x="725.5384722901694" y="685.0984264019997" text-anchor="start" dominant-baseline="alphabetic" xml:space="preserve">Проверить наличие товара</text><g><text fill="black" stroke="none" font-family="sans-serif" font-size="11pt" font-style="normal" font-weight="bold" text-decoration="normal" x="705.1590930177084" y="685.0984264019997" text-anchor="start" dominant-baseline="alphabetic" xml:space="preserve">13 </text></g></g><g><path fill="none" stroke="black" paint-order="fill stroke markers" d=" M 675.0179978106121 691.6325077219998 L 927.4485576087162 691.6325077219998" stroke-miterlimit="10" stroke-width="1.3612669416666667" stroke-dasharray=""/><g transform="translate(940.8978749923829,691.6325077219998) translate(-940.8978749923829,-691.6325077219998)"><path fill="black" stroke="none" paint-order="stroke fill markers" d=" M 927.2852055757162 684.8261730136664 L 940.8978749923829 691.6325077219998 L 927.2852055757162 698.4388424303331 Z"/></g></g><g><rect fill="white" stroke="none" x="755.0387914655795" y="760.2403615819997" width="126.21766914429688" height="21.23576429"/><text fill="black" stroke="none" font-family="sans-serif" font-size="11pt" font-style="normal" font-weight="normal" text-decoration="normal" x="757.4890719605795" y="774.9420445519996" text-anchor="start" dominant-baseline="alphabetic" xml:space="preserve">Товар закончился</text><g><text fill="black" stroke="none" font-family="sans-serif" font-size="11pt" font-style="normal" font-weight="bold" text-decoration="normal" x="737.1096926881186" y="774.9420445519996" text-anchor="start" dominant-baseline="alphabetic" xml:space="preserve">14 </text></g></g><g><path fill="none" stroke="black" paint-order="fill stroke markers" d=" M 940.8978749923829 781.4761258719997 L 688.4673151942787 781.4761258719997" stroke-miterlimit="10" stroke-width="1.3612669416666667" stroke-dasharray="6.53408132"/><g transform="translate(675.0179978106121,781.4761258719997) translate(-675.0179978106121,-781.4761258719997)"><path fill="black" stroke="none" paint-order="stroke fill markers" d=" M 688.6306672272788 774.6697911636663 L 675.0179978106121 781.4761258719997 L 688.6306672272788 788.282460580333 Z"/></g></g><g><rect fill="white" stroke="none" x="484.72785482638665" y="805.9789308219996" width="126.21766914429688" height="21.23576429"/><text fill="black" stroke="none" font-family="sans-serif" font-size="11pt" font-style="normal" font-weight="normal" text-decoration="normal" x="487.17813532138666" y="820.6806137919996" text-anchor="start" dominant-baseline="alphabetic" xml:space="preserve">Товар закончился</text><g><text fill="black" stroke="none" font-family="sans-serif" font-size="11pt" font-style="normal" font-weight="bold" text-decoration="normal" x="466.7987560489257" y="820.6806137919996" text-anchor="start" dominant-baseline="alphabetic" xml:space="preserve">15 </text></g></g><g><path fill="none" stroke="black" paint-order="fill stroke markers" d=" M 658.682794510612 827.2146951119996 L 430.06052239766404 827.2146951119996" stroke-miterlimit="10" stroke-width="1.3612669416666667" stroke-dasharray="6.53408132"/><g transform="translate(416.6112050139974,827.2146951119996) translate(-416.6112050139974,-827.2146951119996)"><path fill="black" stroke="none" paint-order="stroke fill markers" d=" M 430.22387443066407 820.4083604036663 L 416.6112050139974 827.2146951119996 L 430.22387443066407 834.021029820333 Z"/></g></g><g><rect fill="white" stroke="none" x="129.55298799412762" y="851.7175000619995" width="251.39302314820313" height="21.23576429"/><text fill="black" stroke="none" font-family="sans-serif" font-size="11pt" font-style="normal" font-weight="normal" text-decoration="normal" x="132.0032684891276" y="866.4191830319995" text-anchor="start" dominant-baseline="alphabetic" xml:space="preserve">Уведомление, что товар закончился</text><g><text fill="black" stroke="none" font-family="sans-serif" font-size="11pt" font-style="normal" font-weight="bold" text-decoration="normal" x="111.62388921666667" y="866.4191830319995" text-anchor="start" dominant-baseline="alphabetic" xml:space="preserve">16 </text></g></g><g><path fill="none" stroke="black" paint-order="fill stroke markers" d=" M 400.2760017139974 872.9532643519996 L 103.29293553366665 872.9532643519996" stroke-miterlimit="10" stroke-width="1.3612669416666667" stroke-dasharray="6.53408132"/><g transform="translate(89.84361814999998,872.9532643519996) translate(-89.84361814999998,-872.9532643519996)"><path fill="black" stroke="none" paint-order="stroke fill markers" d=" M 103.45628756666665 866.1469296436662 L 89.84361814999998 872.9532643519996 L 103.45628756666665 879.7595990603329 Z"/></g></g><g><rect fill="white" stroke="none" x="759.2800176618686" y="941.5611182119994" width="117.73521675171875" height="21.23576429"/><text fill="black" stroke="none" font-family="sans-serif" font-size="11pt" font-style="normal" font-weight="normal" text-decoration="normal" x="761.7302981568686" y="956.2628011819994" text-anchor="start" dominant-baseline="alphabetic" xml:space="preserve">Товар в наличии</text><g><text fill="black" stroke="none" font-family="sans-serif" font-size="11pt" font-style="normal" font-weight="bold" text-decoration="normal" x="741.3509188844076" y="956.2628011819994" text-anchor="start" dominant-baseline="alphabetic" xml:space="preserve">17 </text></g></g><g><path fill="none" stroke="black" paint-order="fill stroke markers" d=" M 940.8978749923829 962.7968825019994 L 688.4673151942787 962.7968825019994" stroke-miterlimit="10" stroke-width="1.3612669416666667" stroke-dasharray="6.53408132"/><g transform="translate(675.0179978106121,962.7968825019994) translate(-675.0179978106121,-962.7968825019994)"><path fill="black" stroke="none" paint-order="stroke fill markers" d=" M 688.6306672272788 955.9905477936661 L 675.0179978106121 962.7968825019994 L 688.6306672272788 969.6032172103328 Z"/></g></g><g><rect fill="white" stroke="none" x="749.8597910556185" y="987.2996874519994" width="128.40806831421875" height="21.23576429"/><text fill="black" stroke="none" font-family="sans-serif" font-size="11pt" font-style="normal" font-weight="normal" text-decoration="normal" x="752.3100715506185" y="1002.0013704219994" text-anchor="start" dominant-baseline="alphabetic" xml:space="preserve">Обновить корзину</text><g><text fill="black" stroke="none" font-family="sans-serif" font-size="11pt" font-style="normal" font-weight="bold" text-decoration="normal" x="731.9306922781576" y="1002.0013704219994" text-anchor="start" dominant-baseline="alphabetic" xml:space="preserve">18 </text></g></g><g><path fill="none" stroke="black" paint-order="fill stroke markers" d=" M 675.0179978106121 1008.5354517419994 L 919.2809559587162 1008.5354517419994" stroke-miterlimit="10" stroke-width="1.3612669416666667" stroke-dasharray=""/><g transform="translate(932.7302733423828,1008.5354517419994) translate(-932.7302733423828,-1008.5354517419994)"><path fill="black" stroke="none" paint-order="stroke fill markers" d=" M 919.1176039257161 1001.7291170336661 L 932.7302733423828 1008.5354517419994 L 919.1176039257161 1015.3417864503327 Z"/></g></g><g><rect fill="white" stroke="none" x="714.7273676547396" y="1033.0382566919995" width="198.67291511597656" height="21.23576429"/><text fill="black" stroke="none" font-family="sans-serif" font-size="11pt" font-style="normal" font-weight="normal" text-decoration="normal" x="717.1776481497396" y="1047.7399396619996" text-anchor="start" dominant-baseline="alphabetic" xml:space="preserve">Подтверждение обновления</text><g><text fill="black" stroke="none" font-family="sans-serif" font-size="11pt" font-style="normal" font-weight="bold" text-decoration="normal" x="696.7982688772787" y="1047.7399396619996" text-anchor="start" dominant-baseline="alphabetic" xml:space="preserve">19 </text></g></g><g><path fill="none" stroke="black" paint-order="fill stroke markers" d=" M 932.7302733423828 1054.2740209819995 L 688.4673151942787 1054.2740209819995" stroke-miterlimit="10" stroke-width="1.3612669416666667" stroke-dasharray="6.53408132"/><g transform="translate(675.0179978106121,1054.2740209819995) translate(-675.0179978106121,-1054.2740209819995)"><path fill="black" stroke="none" paint-order="stroke fill markers" d=" M 688.6306672272788 1047.4676862736662 L 675.0179978106121 1054.2740209819995 L 688.6306672272788 1061.0803556903327 Z"/></g></g><g><rect fill="white" stroke="none" x="456.3205748581249" y="1078.7768259319996" width="183.03222908082031" height="21.23576429"/><text fill="black" stroke="none" font-family="sans-serif" font-size="11pt" font-style="normal" font-weight="normal" text-decoration="normal" x="458.77085535312494" y="1093.4785089019997" text-anchor="start" dominant-baseline="alphabetic" xml:space="preserve">Товар добавлен в корзину</text><g><text fill="black" stroke="none" font-family="sans-serif" font-size="11pt" font-style="normal" font-weight="bold" text-decoration="normal" x="438.391476080664" y="1093.4785089019997" text-anchor="start" dominant-baseline="alphabetic" xml:space="preserve">20 </text></g></g><g><path fill="none" stroke="black" paint-order="fill stroke markers" d=" M 658.682794510612 1100.0125902219995 L 430.06052239766404 1100.0125902219995" stroke-miterlimit="10" stroke-width="1.3612669416666667" stroke-dasharray="6.53408132"/><g transform="translate(416.6112050139974,1100.0125902219995) translate(-416.6112050139974,-1100.0125902219995)"><path fill="black" stroke="none" paint-order="stroke fill markers" d=" M 430.22387443066407 1093.2062555136663 L 416.6112050139974 1100.0125902219995 L 430.22387443066407 1106.8189249303327 Z"/></g></g><g><rect fill="white" stroke="none" x="176.02757448094403" y="1124.5153951719997" width="158.44385017457031" height="21.23576429"/><text fill="black" stroke="none" font-family="sans-serif" font-size="11pt" font-style="normal" font-weight="normal" text-decoration="normal" x="178.477854975944" y="1139.2170781419998" text-anchor="start" dominant-baseline="alphabetic" xml:space="preserve">Отображение корзины</text><g><text fill="black" stroke="none" font-family="sans-serif" font-size="11pt" font-style="normal" font-weight="bold" text-decoration="normal" x="158.09847570348307" y="1139.2170781419998" text-anchor="start" dominant-baseline="alphabetic" xml:space="preserve">21 </text></g></g><g><path fill="none" stroke="black" paint-order="fill stroke markers" d=" M 400.2760017139974 1145.7511594619996 L 103.29293553366665 1145.7511594619996" stroke-miterlimit="10" stroke-width="1.3612669416666667" stroke-dasharray="6.53408132"/><g transform="translate(89.84361814999998,1145.7511594619996) translate(-89.84361814999998,-1145.7511594619996)"><path fill="black" stroke="none" paint-order="stroke fill markers" d=" M 103.45628756666665 1138.9448247536664 L 89.84361814999998 1145.7511594619996 L 103.45628756666665 1152.5574941703328 Z"/></g></g><g><g/><path fill="none" stroke="black" paint-order="fill stroke markers" d=" M 16.33520329999999 716.1353126719997 L 998.0710865423829 716.1353126719997 L 998.0710865423829 1170.2539644119995 L 16.33520329999999 1170.2539644119995 L 16.33520329999999 716.1353126719997 Z" stroke-miterlimit="10" stroke-width="2.3336004714285714" stroke-dasharray=""/><path fill="white" stroke="black" paint-order="fill stroke markers" d=" M 16.33520329999999 716.1353126719997 L 16.33520329999999 735.7375566319997 L 62.6944068970703 735.7375566319997 L 72.4955288770703 725.9364346519997 L 72.4955288770703 716.1353126719997 L 16.33520329999999 716.1353126719997" stroke-miterlimit="10" stroke-width="2.3336004714285714" stroke-dasharray=""/><text fill="black" stroke="none" font-family="sans-serif" font-size="8.8pt" font-style="normal" font-weight="bold" text-decoration="normal" x="32.67040659999999" y="729.2034753119997" text-anchor="start" dominant-baseline="alphabetic" xml:space="preserve">alt</text><g><rect fill="white" stroke="none" x="86.3804516820703" y="717.4421289359997" width="117.16023506226563" height="16.988611432000003"/></g><text fill="black" stroke="none" font-family="sans-serif" font-size="8.8pt" font-style="normal" font-weight="bold" text-decoration="normal" x="88.8307321770703" y="729.2034753119997" text-anchor="start" dominant-baseline="alphabetic" xml:space="preserve">[Товар закончился]</text><g><path fill="none" stroke="black" paint-order="fill stroke markers" d=" M 16.33520329999999 897.4560693019995 L 998.0710865423829 897.4560693019995" stroke-miterlimit="10" stroke-width="2.3336004714285714" stroke-dasharray="4.083800825"/></g><g/><g><rect fill="white" stroke="none" x="86.3804516820703" y="898.7628855659995" width="161.27943672242188" height="16.988611432000003"/></g><text fill="black" stroke="none" font-family="sans-serif" font-size="8.8pt" font-style="normal" font-weight="bold" text-decoration="normal" x="88.8307321770703" y="910.5242319419995" text-anchor="start" dominant-baseline="alphabetic" xml:space="preserve">[Товар имеется в наличии]</text></g><g/></g><g/><g/><g/><g/></g></svg>