<svg xmlns="http://www.w3.org/2000/svg" xmlns:xlink="http://www.w3.org/1999/xlink" version="1.1" width="1273.8350109001706" height="1114.7142731919994"><desc>%40startuml%0Aactor%20%D0%9F%D0%BE%D0%BB%D1%8C%D0%B7%D0%BE%D0%B2%D0%B0%D1%82%D0%B5%D0%BB%D1%8C%0Aboundary%20%D0%9A%D0%BB%D0%B8%D0%B5%D0%BD%D1%82%0Acontrol%20%D0%A1%D0%B5%D1%80%D0%B2%D0%B5%D1%80_API%20as%20%22%D0%A1%D0%B5%D1%80%D0%B2%D0%B5%D1%80%20API%22%0Adatabase%20%D0%91%D0%B0%D0%B7%D0%B0_%D0%B4%D0%B0%D0%BD%D0%BD%D1%8B%D1%85%20as%20%22%D0%91%D0%B0%D0%B7%D0%B0%20%D0%B4%D0%B0%D0%BD%D0%BD%D1%8B%D1%85%22%0A%0Aautonumber%0A%0Aactivate%20%D0%9F%D0%BE%D0%BB%D1%8C%D0%B7%D0%BE%D0%B2%D0%B0%D1%82%D0%B5%D0%BB%D1%8C%0A%D0%9F%D0%BE%D0%BB%D1%8C%D0%B7%D0%BE%D0%B2%D0%B0%D1%82%D0%B5%D0%BB%D1%8C%20-%3E%20%D0%9A%D0%BB%D0%B8%D0%B5%D0%BD%D1%82%3A%20%D0%9E%D1%82%D0%BF%D1%80%D0%B0%D0%B2%D0%B8%D1%82%D1%8C%20%D0%B7%D0%B0%D0%BF%D1%80%D0%BE%D1%81%20%D0%BD%D0%B0%20%D0%B2%D0%B8%D1%82%D1%80%D0%B8%D0%BD%D1%83%0Adeactivate%20%D0%9F%D0%BE%D0%BB%D1%8C%D0%B7%D0%BE%D0%B2%D0%B0%D1%82%D0%B5%D0%BB%D1%8C%0Aactivate%20%D0%9A%D0%BB%D0%B8%D0%B5%D0%BD%D1%82%0A%D0%9A%D0%BB%D0%B8%D0%B5%D0%BD%D1%82%20-%3E%20%D0%A1%D0%B5%D1%80%D0%B2%D0%B5%D1%80_API%3A%20GET%20%2Fapi%2Fproducts%0Aactivate%20%D0%A1%D0%B5%D1%80%D0%B2%D0%B5%D1%80_API%0A%D0%A1%D0%B5%D1%80%D0%B2%D0%B5%D1%80_API%20-%3E%20%D0%91%D0%B0%D0%B7%D0%B0_%D0%B4%D0%B0%D0%BD%D0%BD%D1%8B%D1%85%3A%20%D0%97%D0%B0%D0%BF%D1%80%D0%BE%D1%81%D0%B8%D1%82%D1%8C%20%D0%B4%D0%B0%D0%BD%D0%BD%D1%8B%D0%B5%20%D1%82%D0%BE%D0%B2%D0%B0%D1%80%D0%BE%D0%B2%0Aactivate%20%D0%91%D0%B0%D0%B7%D0%B0_%D0%B4%D0%B0%D0%BD%D0%BD%D1%8B%D1%85%0A%D0%91%D0%B0%D0%B7%D0%B0_%D0%B4%D0%B0%D0%BD%D0%BD%D1%8B%D1%85%20--%3E%20%D0%A1%D0%B5%D1%80%D0%B2%D0%B5%D1%80_API%3A%20%D0%92%D0%B5%D1%80%D0%BD%D1%83%D1%82%D1%8C%20%D1%81%D0%BF%D0%B8%D1%81%D0%BE%D0%BA%20%D1%82%D0%BE%D0%B2%D0%B0%D1%80%D0%BE%D0%B2%0Adeactivate%20%D0%91%D0%B0%D0%B7%D0%B0_%D0%B4%D0%B0%D0%BD%D0%BD%D1%8B%D1%85%0A%D0%A1%D0%B5%D1%80%D0%B2%D0%B5%D1%80_API%20--%3E%20%D0%9A%D0%BB%D0%B8%D0%B5%D0%BD%D1%82%3A%20%D0%A1%D0%BF%D0%B8%D1%81%D0%BE%D0%BA%20%D1%82%D0%BE%D0%B2%D0%B0%D1%80%D0%BE%D0%B2%0Adeactivate%20%D0%A1%D0%B5%D1%80%D0%B2%D0%B5%D1%80_API%0Adeactivate%20%D0%9A%D0%BB%D0%B8%D0%B5%D0%BD%D1%82%0Aactivate%20%D0%9F%D0%BE%D0%BB%D1%8C%D0%B7%D0%BE%D0%B2%D0%B0%D1%82%D0%B5%D0%BB%D1%8C%0A%D0%9F%D0%BE%D0%BB%D1%8C%D0%B7%D0%BE%D0%B2%D0%B0%D1%82%D0%B5%D0%BB%D1%8C%20-%3E%20%D0%9A%D0%BB%D0%B8%D0%B5%D0%BD%D1%82%3A%20%D0%92%D1%8B%D0%B1%D1%80%D0%B0%D1%82%D1%8C%20%D1%82%D0%BE%D0%B2%D0%B0%D1%80%0Adeactivate%20%D0%9F%D0%BE%D0%BB%D1%8C%D0%B7%D0%BE%D0%B2%D0%B0%D1%82%D0%B5%D0%BB%D1%8C%0Aactivate%20%D0%9A%D0%BB%D0%B8%D0%B5%D0%BD%D1%82%0A%D0%9A%D0%BB%D0%B8%D0%B5%D0%BD%D1%82%20-%3E%20%D0%A1%D0%B5%D1%80%D0%B2%D0%B5%D1%80_API%3A%20GET%20%2Fapi%2Fproducts%2F%7Bid%7D%0Aactivate%20%D0%A1%D0%B5%D1%80%D0%B2%D0%B5%D1%80_API%0A%D0%A1%D0%B5%D1%80%D0%B2%D0%B5%D1%80_API%20-%3E%20%D0%91%D0%B0%D0%B7%D0%B0_%D0%B4%D0%B0%D0%BD%D0%BD%D1%8B%D1%85%3A%20%D0%97%D0%B0%D0%BF%D1%80%D0%BE%D1%81%D0%B8%D1%82%D1%8C%20%D0%B4%D0%B0%D0%BD%D0%BD%D1%8B%D0%B5%20%D0%BE%20%D1%82%D0%BE%D0%B2%D0%B0%D1%80%D0%B5%0Aactivate%20%D0%91%D0%B0%D0%B7%D0%B0_%D0%B4%D0%B0%D0%BD%D0%BD%D1%8B%D1%85%0A%D0%91%D0%B0%D0%B7%D0%B0_%D0%B4%D0%B0%D0%BD%D0%BD%D1%8B%D1%85%20--%3E%20%D0%A1%D0%B5%D1%80%D0%B2%D0%B5%D1%80_API%3A%20%D0%92%D0%B5%D1%80%D0%BD%D1%83%D1%82%D1%8C%20%D0%B4%D0%B5%D1%82%D0%B0%D0%BB%D0%B8%20%D1%82%D0%BE%D0%B2%D0%B0%D1%80%D0%B0%0Adeactivate%20%D0%91%D0%B0%D0%B7%D0%B0_%D0%B4%D0%B0%D0%BD%D0%BD%D1%8B%D1%85%0A%D0%A1%D0%B5%D1%80%D0%B2%D0%B5%D1%80_API%20--%3E%20%D0%9A%D0%BB%D0%B8%D0%B5%D0%BD%D1%82%3A%20%D0%94%D0%B5%D1%82%D0%B0%D0%BB%D0%B8%20%D1%82%D0%BE%D0%B2%D0%B0%D1%80%D0%B0%0Adeactivate%20%D0%A1%D0%B5%D1%80%D0%B2%D0%B5%D1%80_API%0Adeactivate%20%D0%9A%D0%BB%D0%B8%D0%B5%D0%BD%D1%82%0Aactivate%20%D0%9F%D0%BE%D0%BB%D1%8C%D0%B7%D0%BE%D0%B2%D0%B0%D1%82%D0%B5%D0%BB%D1%8C%0A%D0%9F%D0%BE%D0%BB%D1%8C%D0%B7%D0%BE%D0%B2%D0%B0%D1%82%D0%B5%D0%BB%D1%8C%20-%3E%20%D0%9A%D0%BB%D0%B8%D0%B5%D0%BD%D1%82%3A%20%D0%94%D0%BE%D0%B1%D0%B0%D0%B2%D0%B8%D1%82%D1%8C%20%D1%82%D0%BE%D0%B2%D0%B0%D1%80%20%D0%B2%20%D0%BA%D0%BE%D1%80%D0%B7%D0%B8%D0%BD%D1%83%0Aactivate%20%D0%9A%D0%BB%D0%B8%D0%B5%D0%BD%D1%82%0A%D0%9A%D0%BB%D0%B8%D0%B5%D0%BD%D1%82%20-%3E%20%D0%A1%D0%B5%D1%80%D0%B2%D0%B5%D1%80_API%3A%20POST%20%2Fapi%2Fcart%0Aactivate%20%D0%A1%D0%B5%D1%80%D0%B2%D0%B5%D1%80_API%0A%D0%A1%D0%B5%D1%80%D0%B2%D0%B5%D1%80_API%20-%3E%20%D0%91%D0%B0%D0%B7%D0%B0_%D0%B4%D0%B0%D0%BD%D0%BD%D1%8B%D1%85%3A%20%D0%9F%D1%80%D0%BE%D0%B2%D0%B5%D1%80%D0%B8%D1%82%D1%8C%20%D0%BD%D0%B0%D0%BB%D0%B8%D1%87%D0%B8%D0%B5%20%D1%82%D0%BE%D0%B2%D0%B0%D1%80%D0%B0%0AAlt%20%D0%A2%D0%BE%D0%B2%D0%B0%D1%80%20%D0%B7%D0%B0%D0%BA%D0%BE%D0%BD%D1%87%D0%B8%D0%BB%D1%81%D1%8F%0A%D0%91%D0%B0%D0%B7%D0%B0_%D0%B4%D0%B0%D0%BD%D0%BD%D1%8B%D1%85%20--%3E%20%D0%A1%D0%B5%D1%80%D0%B2%D0%B5%D1%80_API%3A%20%D0%A2%D0%BE%D0%B2%D0%B0%D1%80%20%D0%B7%D0%B0%D0%BA%D0%BE%D0%BD%D1%87%D0%B8%D0%BB%D1%81%D1%8F%0A%D0%A1%D0%B5%D1%80%D0%B2%D0%B5%D1%80_API%20--%3E%20%D0%9A%D0%BB%D0%B8%D0%B5%D0%BD%D1%82%3A%20%D0%A2%D0%BE%D0%B2%D0%B0%D1%80%20%D0%B7%D0%B0%D0%BA%D0%BE%D0%BD%D1%87%D0%B8%D0%BB%D1%81%D1%8F%0A%D0%9A%D0%BB%D0%B8%D0%B5%D0%BD%D1%82%20--%3E%20%D0%9F%D0%BE%D0%BB%D1%8C%D0%B7%D0%BE%D0%B2%D0%B0%D1%82%D0%B5%D0%BB%D1%8C%3A%20%D0%A3%D0%B2%D0%B5%D0%B4%D0%BE%D0%BC%D0%BB%D0%B5%D0%BD%D0%B8%D0%B5%2C%20%D1%87%D1%82%D0%BE%20%D1%82%D0%BE%D0%B2%D0%B0%D1%80%20%D0%B7%D0%B0%D0%BA%D0%BE%D0%BD%D1%87%D0%B8%D0%BB%D1%81%D1%8F%0AElse%20%D0%A2%D0%BE%D0%B2%D0%B0%D1%80%20%D0%B8%D0%BC%D0%B5%D0%B5%D1%82%D1%81%D1%8F%20%D0%B2%20%D0%BD%D0%B0%D0%BB%D0%B8%D1%87%D0%B8%D0%B8%0A%D0%91%D0%B0%D0%B7%D0%B0_%D0%B4%D0%B0%D0%BD%D0%BD%D1%8B%D1%85%20--%3E%20%D0%A1%D0%B5%D1%80%D0%B2%D0%B5%D1%80_API%3A%20%D0%A2%D0%BE%D0%B2%D0%B0%D1%80%20%D0%B2%20%D0%BD%D0%B0%D0%BB%D0%B8%D1%87%D0%B8%D0%B8%0A%D0%A1%D0%B5%D1%80%D0%B2%D0%B5%D1%80_API%20-%3E%20%D0%91%D0%B0%D0%B7%D0%B0_%D0%B4%D0%B0%D0%BD%D0%BD%D1%8B%D1%85%3A%20%D0%9E%D0%B1%D0%BD%D0%BE%D0%B2%D0%B8%D1%82%D1%8C%20%D0%BA%D0%BE%D1%80%D0%B7%D0%B8%D0%BD%D1%83%0Aactivate%20%D0%91%D0%B0%D0%B7%D0%B0_%D0%B4%D0%B0%D0%BD%D0%BD%D1%8B%D1%85%0A%D0%91%D0%B0%D0%B7%D0%B0_%D0%B4%D0%B0%D0%BD%D0%BD%D1%8B%D1%85%20--%3E%20%D0%A1%D0%B5%D1%80%D0%B2%D0%B5%D1%80_API%3A%20%D0%9F%D0%BE%D0%B4%D1%82%D0%B2%D0%B5%D1%80%D0%B6%D0%B4%D0%B5%D0%BD%D0%B8%D0%B5%20%D0%BE%D0%B1%D0%BD%D0%BE%D0%B2%D0%BB%D0%B5%D0%BD%D0%B8%D1%8F%0Adeactivate%20%D0%91%D0%B0%D0%B7%D0%B0_%D0%B4%D0%B0%D0%BD%D0%BD%D1%8B%D1%85%0A%D0%A1%D0%B5%D1%80%D0%B2%D0%B5%D1%80_API%20--%3E%20%D0%9A%D0%BB%D0%B8%D0%B5%D0%BD%D1%82%3A%20%D0%A2%D0%BE%D0%B2%D0%B0%D1%80%20%D0%B4%D0%BE%D0%B1%D0%B0%D0%B2%D0%BB%D0%B5%D0%BD%20%D0%B2%20%D0%BA%D0%BE%D1%80%D0%B7%D0%B8%D0%BD%D1%83%0Adeactivate%20%D0%A1%D0%B5%D1%80%D0%B2%D0%B5%D1%80_API%0A%D0%9A%D0%BB%D0%B8%D0%B5%D0%BD%D1%82%20--%3E%20%D0%9F%D0%BE%D0%BB%D1%8C%D0%B7%D0%BE%D0%B2%D0%B0%D1%82%D0%B5%D0%BB%D1%8C%3A%20%D0%9E%D1%82%D0%BE%D0%B1%D1%80%D0%B0%D0%B6%D0%B5%D0%BD%D0%B8%D0%B5%20%D0%BA%D0%BE%D1%80%D0%B7%D0%B8%D0%BD%D1%8B%0Adeactivate%20%D0%9A%D0%BB%D0%B8%D0%B5%D0%BD%D1%82%0Adeactivate%20%D0%9F%D0%BE%D0%BB%D1%8C%D0%B7%D0%BE%D0%B2%D0%B0%D1%82%D0%B5%D0%BB%D1%8C%0Aend%20alt%0A%40enduml%0A</desc><defs/><g><g/><g/><g/><g/><g/><g/><g/><g/><g/><g/><g/><g/><g/><g/><g/><g/><g/><g/><g/><g/><g/><g/><g/><g/><g/><g/><g/><g/><g/><g/><g/><g/><g/><g/><g/><g/><g/><g/><g/><g/><g/><g/><g/><g/><g/><g/><g/><g/><g/><g/><g/><g/><g/><g/><g/><g/><g/><g/><g/><g/><g/><g/><g/><g/><g/><g/><g/><g/><g/><g/><g/><g/><g/><g/><g/><g/><g/><g/><g/><g/><g/><g/><g/><g/><g/><g/><g/><g/><g/><g/><g/><g/><g/><g/><g/><g/><g/><g/><g/><g/><g/><g/><g/><g/><g/><g/><g/><g/><g/><g/><g/><g/><g/><g/><g/><g/><g/><g/><g/><g/><g/><g/><g/><g/><g/><g/><g/><g/><g/><g/><g/><g/><g/><g/><g/><g><rect fill="white" stroke="none" x="0" y="0" width="1273" height="1114"/></g><g/><g><path fill="none" stroke="black" paint-order="fill stroke markers" d=" M 55.73381716513672 88.863505952 L 55.73381716513672 1114.7142731919994" stroke-miterlimit="10" stroke-width="1.3612669416666667" stroke-dasharray="12.565541,5.445067766666667"/><path fill="none" stroke="black" paint-order="fill stroke markers" d=" M 382.5014040291341 88.863505952 L 382.5014040291341 1114.7142731919994" stroke-miterlimit="10" stroke-width="1.3612669416666667" stroke-dasharray="12.565541,5.445067766666667"/><path fill="none" stroke="black" paint-order="fill stroke markers" d=" M 526.150760892263 88.863505952 L 526.150760892263 1114.7142731919994" stroke-miterlimit="10" stroke-width="1.3612669416666667" stroke-dasharray="12.565541,5.445067766666667"/><path fill="none" stroke="black" paint-order="fill stroke markers" d=" M 746.451555622927 88.863505952 L 746.451555622927 1114.7142731919994" stroke-miterlimit="10" stroke-width="1.3612669416666667" stroke-dasharray="12.565541,5.445067766666667"/><path fill="none" stroke="black" paint-order="fill stroke markers" d=" M 928.1947425283294 88.863505952 L 928.1947425283294 1114.7142731919994" stroke-miterlimit="10" stroke-width="1.3612669416666667" stroke-dasharray="12.565541,5.445067766666667"/><path fill="none" stroke="black" paint-order="fill stroke markers" d=" M 1202.2422213601003 88.863505952 L 1202.2422213601003 1114.7142731919994" stroke-miterlimit="10" stroke-width="1.3612669416666667" stroke-dasharray="12.565541,5.445067766666667"/></g><g><g><path fill="white" stroke="black" paint-order="fill stroke markers" d=" M 65.04488304613672 19.765595993000005 A 9.311065881 9.311065881 0 1 1 65.04487839060417 19.756284928670844 M 55.73381716513672 29.076661874000006 L 55.73381716513672 49.00560990000001 M 43.97247078913672 36.264151326000004 L 67.49516354113672 36.264151326000004 M 55.73381716513672 49.00560990000001 L 43.97247078913672 67.627741662 M 55.73381716513672 49.00560990000001 L 67.49516354113672 67.627741662" stroke-miterlimit="10" stroke-width="2.7769845610000004" stroke-dasharray=""/></g><g><g/><text fill="black" stroke="none" font-family="sans-serif" font-size="11pt" font-style="normal" font-weight="normal" text-decoration="normal" x="8.167601650000002" y="83.962944962" text-anchor="start" dominant-baseline="alphabetic" xml:space="preserve">Пользователь</text></g><g><path fill="white" stroke="black" paint-order="fill stroke markers" d=" M 414.9267825796341 41.981472481 A 24.2577769005 24.2577769005 0 1 1 414.9267704507467 41.957214708142445 M 351.4645177591341 16.335203299999996 L 351.4645177591341 67.627741662 M 350.0760254786341 41.981472481 L 366.4112287786341 41.981472481" stroke-miterlimit="10" stroke-width="2.7769845610000004" stroke-dasharray=""/></g><g><g/><text fill="black" stroke="none" font-family="sans-serif" font-size="11pt" font-style="normal" font-weight="normal" text-decoration="normal" x="358.3782808601888" y="83.962944962" text-anchor="start" dominant-baseline="alphabetic" xml:space="preserve">Клиент</text></g><g><path fill="white" stroke="black" paint-order="fill stroke markers" d=" M 550.4085377927629 41.981472481 A 24.2577769005 24.2577769005 0 1 1 550.4085256638755 41.957214708142445 M 522.8837202322629 17.723695580499996 L 532.6848422122629 9.556093930499996 M 522.8837202322629 17.723695580499996 L 532.6848422122629 25.891297230499994" stroke-miterlimit="10" stroke-width="2.7769845610000004" stroke-dasharray=""/></g><g><g/><text fill="black" stroke="none" font-family="sans-serif" font-size="11pt" font-style="normal" font-weight="normal" text-decoration="normal" x="428.56667733513405" y="83.962944962" text-anchor="start" dominant-baseline="alphabetic" xml:space="preserve">Сервер_API as "Сервер API"</text></g><g><path fill="white" stroke="black" paint-order="fill stroke markers" d=" M 722.6021588049271 56.84650748400001 L 722.6021588049271 22.542580554000004 L 770.300952440927 22.542580554000004 L 770.300952440927 56.84650748400001" stroke-miterlimit="10" stroke-width="2.7769845610000004" stroke-dasharray=""/><path fill="white" stroke="black" paint-order="fill stroke markers" d=" M 770.300952440927 21.350110713100005 L 770.2997599810233 21.457921258016626 L 770.2961827205572 21.5657210219686 L 770.290221017252 21.673499225069357 L 770.2818754672726 21.78124508958841 L 770.2711469051674 21.88894784102909 L 770.2580364037835 21.996596709206006 L 770.2425452741603 22.104180929322048 L 770.2246750653977 22.21168974304486 L 770.2044275645017 22.319112399582657 L 770.1818047962055 22.426438156759303 L 770.1568090227671 22.53365628208852 L 770.1294427437431 22.640756053847124 L 770.0997086957385 22.747726762147185 L 770.0676098521334 22.85455771000702 L 770.0331494227853 22.961238214420863 L 769.9963308537085 23.06775760742718 L 769.9571578267291 23.17410523717543 L 769.9156342591174 23.28027046899126 L 769.8717643031954 23.386242686439964 L 769.825552345922 23.492011292388106 L 769.7770030084547 23.59756571006323 L 769.7261211456866 23.70289538411153 L 769.6729118457617 23.80798978165338 L 769.6173804295655 23.912838393336596 L 769.5595324501935 24.01743073438739 L 769.4993736923954 24.12175634565881 L 769.4369101719967 24.225804794676677 L 769.3721481352975 24.329565676682787 L 769.3050940584475 24.433028615675408 L 769.2357546467986 24.536183265446862 L 769.1641368342339 24.639019310618135 L 769.0902477824752 24.741526467670404 L 769.0140948803662 24.843694485973387 L 768.9356857431334 24.945513148810388 L 768.8550282116253 25.04697227439998 L 768.7721303515278 25.14806171691415 L 768.687000452558 25.24877136749289 L 768.5996470276345 25.34909115525506 L 768.5100788120274 25.449011048305486 L 768.4183047624833 25.54852105473813 L 768.3243340563308 25.64761122363528 L 768.2281760905623 25.74627164606261 L 768.1298404808942 25.8444924560601 L 768.0293370608053 25.942263831628598 L 767.9266758805543 26.039575995712028 L 767.8218672061732 26.136419217175067 L 767.7149215184423 26.23278381177628 L 767.6058495118414 26.328660143136503 L 767.4946620934801 26.4240386237025 L 767.3813703820075 26.518909715705696 L 767.2659857065006 26.613263932115952 L 767.1485196053305 26.70709183759025 L 767.0289838250096 26.800384049416238 L 766.9073903190164 26.893131238450472 L 766.7837512466 26.98532413005134 L 766.6580789715646 27.076953505006507 L 766.5303860610331 27.168010200454837 L 766.4006852841901 27.258485110802667 L 766.2689896110052 27.34836918863435 L 766.1353122109359 27.437653445617016 L 765.999666451611 27.526328953399368 L 765.8620658974932 27.614386844504516 L 765.7225243085232 27.70181831321674 L 765.5810556387439 27.788614616462024 L 765.4376740349041 27.874767074682374 L 765.292393835045 27.960267072703758 L 765.1452295670651 28.04510606059763 L 764.996195947269 28.129275554535894 L 764.8453078788941 28.212767137639304 L 764.6925804506218 28.295572460819116 L 764.5380289350676 28.377683243612026 L 764.3816687872541 28.459091275008173 L 764.2235156430658 28.539788414272262 L 764.0635853176855 28.61976659175761 L 763.9018938040123 28.69901780971312 L 763.738457271063 28.777534143083034 L 763.5732920623544 28.855307740299452 L 763.4064146942701 28.93233082406746 L 763.2378418544076 29.008595692142865 L 763.0675903999105 29.084094718102417 L 762.8956773557824 29.158820352106435 L 762.7221199131843 29.232765121653788 L 762.546935427716 29.30592163232914 L 762.37014141768 29.37828256854239 L 762.19175556233 29.449840694260217 L 762.0117957001027 29.520588853729684 L 761.8302798268346 29.590519972193793 L 761.6472260939616 29.65962705659898 L 761.4626528067047 29.72790319629439 L 761.2765784222385 29.79534156372295 L 761.0890215478465 29.861935415104117 L 760.9000009390599 29.92767809110825 L 760.709535497782 29.992563017522528 L 760.5176442703981 30.05658370590838 L 760.3243464458714 30.119733754250326 L 760.1296613538228 30.182006847596153 L 759.9336084625996 30.24339675868842 L 759.7362073773274 30.30389734858717 L 759.5374778379504 30.363502567283838 L 759.3374397172566 30.42220645430622 L 759.1361130188917 30.48000313931454 L 758.9335178753577 30.536886842688453 L 758.7296745459998 30.59285187610503 L 758.5246034149816 30.647892643107568 L 758.3183249892448 30.70200363966523 L 758.1108598964605 30.75517945472345 L 757.9022288829648 30.80741477074504 L 757.6924528116854 30.85870436424193 L 757.4815526600544 30.909043106297503 L 757.2695495179113 30.958425963079506 L 757.0564645853937 31.006847996343417 L 756.8423191708173 31.054304363926256 L 756.627134688545 31.100790320230814 L 756.4109326568457 31.146301216700202 L 756.1937346957426 31.19083250228269 L 755.9755625248506 31.234379723886832 L 755.756437961205 31.27693852682676 L 755.5363829170797 31.318504655257648 L 755.3154193977956 31.359073952601285 L 755.0935694995206 31.39864236196175 L 754.8708554070596 31.43720592653107 L 754.6472993916361 31.47476078998494 L 754.4229238086657 31.511303196868298 L 754.1977510955194 31.54682949297091 L 753.971803769281 31.581336125692772 L 753.7451044244948 31.614819644399372 L 753.5176757309064 31.64727670076673 L 753.2895404311955 31.678704049116273 L 753.0607213387023 31.70909854673934 L 752.8312413351449 31.73845715421151 L 752.6011233683329 31.76677693569649 L 752.3703904498708 31.79405505923974 L 752.1390656528584 31.82028879705163 L 751.9071721095826 31.84547552578025 L 751.6747330092045 31.86961272677371 L 751.4417715954404 31.892697986332017 L 751.2083111642374 31.91472899594847 L 750.9743750614444 31.935703552540453 L 750.7399866804765 31.955619558669788 L 750.5051694599765 31.974475022752465 L 750.2699468814709 31.992268059257782 L 750.0343424670212 32.00899688889692 L 749.7983797768729 32.02465983880085 L 749.5620824070983 32.03925534268764 L 749.3254739872373 32.05278194101906 L 749.0885781779347 32.065238281146556 L 748.8514186685742 32.07662311744649 L 748.614019174909 32.08693531144472 L 748.3764034366906 32.09617383193043 L 748.1385952152949 32.10433775505929 L 747.9006182913458 32.111426264445775 L 747.6624964623375 32.11743865124486 L 747.4242535402543 32.122374314222874 L 747.18591334919 32.12623275981763 L 746.947499722965 32.1290136021878 L 746.7090365027432 32.13071656325143 L 746.4705475346481 32.13134147271386 L 746.2320566673775 32.13088826808466 L 745.9935877498197 32.12935699468392 L 745.7551646286674 32.126747805637685 L 745.5168111460345 32.123060961862706 L 745.27855113707 32.11829683204027 L 745.0404084275768 32.112455892579405 L 744.8024068316272 32.10553872756918 L 744.5645701491824 32.09754602872034 L 744.3269221637124 32.088478595296095 L 744.0894866398179 32.07833733403225 L 743.8522873208532 32.06712325904647 L 743.6153479265528 32.054837491736905 L 743.3786921506585 32.041481260670054 L 743.1423436585507 32.027055901457885 L 742.9063260848816 32.01156285662431 L 742.670663031212 31.9950036754609 L 742.4353780636509 31.977380013871965 L 742.2004947104989 31.958693634208984 L 741.9660364598956 31.938946405094345 L 741.7320267574707 31.91814030123451 L 741.4984890039993 31.89627740322252 L 741.2654465530625 31.873359897329962 L 741.0329227087108 31.849390075288326 L 740.8009407231349 31.824370334059843 L 740.5695237943403 31.798303175597784 L 740.3386950638268 31.77119120659627 L 740.1084776142752 31.743037138229617 L 739.8788944672386 31.713843785881192 L 739.6499685808403 31.683614068861903 L 739.4217228474783 31.652351010118263 L 739.1941800915357 31.62005773593009 L 738.9673630670984 31.5867374755979 L 738.74129445568 31.55239356111995 L 738.515996863953 31.517029426859075 L 738.2914928214889 31.48064860919922 L 738.067804778505 31.443254746191855 L 737.8449551036191 31.404851577192098 L 737.622966081613 31.365442942484854 L 737.4018599112039 31.325032782900756 L 737.1816587028245 31.283625139422085 L 736.9623844764124 31.241224152778685 L 736.7440591592072 31.19783406303388 L 736.5267045835587 31.153459209160495 L 736.3103424847437 31.10810402860693 L 736.0949944987914 31.06177305685345 L 735.8806821603212 31.01447092695862 L 735.667426900388 30.96620236909601 L 735.4552500443406 30.916972210081184 L 735.2441728096873 30.86678537288902 L 735.0342163039759 30.81564687616141 L 734.825401522682 30.763561833705417 L 734.6177493471097 30.71053545398188 L 734.4112805423035 30.65657303958458 L 734.2060157549719 30.601679986709993 L 734.0019755114224 30.54586178461766 L 733.7991802155094 30.489124015081273 L 733.5976501465937 30.43147235183051 L 733.397405457514 30.372912559983654 L 733.1984661725724 30.31345049547108 L 733.0008521855316 30.253092104449696 L 732.8045832576257 30.191843422708303 L 732.6096790155839 30.129710575064035 L 732.416158949668 30.06669977474988 L 732.2240424117232 30.00281732279336 L 732.0333486132434 29.93806960738643 L 731.8440966234494 29.872463103246687 L 731.6563053673825 29.806004370969866 L 731.4699936240119 29.738700056373812 L 731.2851800243565 29.670556889833897 L 731.1018830496224 29.601581685609993 L 730.9201210293543 29.531781341165036 L 730.7399121396027 29.46116283647531 L 730.5612744011064 29.38973323333244 L 730.3842256774905 29.317499674637205 L 730.2087836734796 29.244469383685285 L 730.0349659331282 29.17064966344492 L 729.8627898380653 29.096047895826608 L 729.6922726057569 29.020671540944956 L 729.5234312877843 28.94452813637263 L 729.3562827681384 28.867625296386635 L 729.190843761532 28.789970711206887 L 729.0271308117278 28.71157214622719 L 728.8651602898846 28.632437441238714 L 728.7049483929193 28.55257450964601 L 728.5465111418881 28.471991337675682 L 728.3898643803843 28.39069598357778 L 728.2350237729535 28.308696576819962 L 728.0820048035271 28.226001317274573 L 727.9308227738749 28.14261847439866 L 727.7814928020736 28.05855638640702 L 727.634029820996 27.973823459438403 L 727.4884485768175 27.888428166714895 L 727.344763627541 27.8023790476946 L 727.2029893415419 27.715684707217726 L 727.0631398961305 27.62835381464606 L 726.9252292761347 27.540395102996097 L 726.7892712725017 27.451817368065694 L 726.6552794809186 27.362629467554534 L 726.5232673004529 27.272840320178346 L 726.3932479322125 27.18245890477704 L 726.265234378026 27.091494259416837 L 726.1392394391421 26.999955480486477 L 726.0152757149498 26.907851721787566 L 725.8933556017181 26.81519219361922 L 725.7734912913567 26.721986161857046 L 725.6556947701968 26.62824294702654 L 725.5399778177923 26.53397192337107 L 725.426352005742 26.439182517914446 L 725.3148286965327 26.34388420951822 L 725.205419042402 26.24808652793381 L 725.0981339842243 26.151799052849555 L 724.992984250416 26.055031412932717 L 724.889980355863 25.95779328486665 L 724.7891326008687 25.860094392383132 L 724.6904510701246 25.76194450528999 L 724.5939456317017 25.663353438494145 L 724.4996259360632 25.564331051020115 L 724.4075014151002 25.464887245024137 L 724.317581281188 25.365031964803933 L 724.2298745262651 25.26477519580431 L 724.1443899209338 25.164126963618635 L 724.0611360135836 25.06309733298624 L 723.9801211295355 24.961696406786004 L 723.9013533702107 24.85993432502604 L 723.8248406123195 24.75782126382973 L 723.7505905070736 24.655367434418096 L 723.6786104794221 24.552583082088702 L 723.6089077273074 24.449478485191126 L 723.5414892209469 24.346063954099137 L 723.4763617021349 24.24234983017967 L 723.413531683569 24.138346484758685 L 723.3530054481988 24.034064318084056 L 723.2947890485973 23.92951375828555 L 723.2388883063561 23.824705260332024 L 723.1853088115026 23.719649304985925 L 723.1340559219418 23.614356397755248 L 723.08513476292 23.508837067842972 L 723.0385502265121 23.403101867094154 L 722.9943069711333 23.297161368940756 L 722.9524094210718 23.19102616734431 L 722.9128617660481 23.084706875736533 L 722.8756679607944 22.978214125957983 L 722.8408317246606 22.871558567194896 L 722.8083565412409 22.764750864914266 L 722.7782456580269 22.657801699797318 L 722.7505020860816 22.55072176667144 L 722.7251285997393 22.443521773440715 L 722.7021277363273 22.336212440015125 L 722.6815017959128 22.228804497238592 L 722.6632528410727 22.121308685815887 L 722.6473826966873 22.013735755238574 L 722.6338929497578 21.906096462710064 L 722.6227849492475 21.798401572069917 L 722.6140598059475 21.690661852717444 L 722.6077183923645 21.582888078534804 L 722.6037613426349 21.475091026809597 L 722.6021890524602 21.367281477157174 L 722.6030016790681 21.25947021044265 L 722.6061991411967 21.15166800770286 L 722.6117811191024 21.04388564906824 L 722.619747054592 20.936133912684838 L 722.6300961510788 20.8284235736365 L 722.6428273736616 20.720765402867368 L 722.6579394492287 20.613170166104805 L 722.6754308665853 20.50564862278283 L 722.6952998766042 20.398211524966168 L 722.7175444924007 20.290869616275074 L 722.7421624895322 20.183633630810963 L 722.7691514062192 20.076514292083022 L 722.7985085435926 19.969522311935854 L 722.8302309659631 19.862668389478316 L 722.864315501115 19.75596321001361 L 722.900758740623 19.649417443970762 L 722.9395570401938 19.543041745837584 L 722.9807065200295 19.43684675309525 L 723.0242030652165 19.330843085154534 L 723.0700423261366 19.225041342293892 L 723.1182197189017 19.11945210459945 L 723.168730425813 19.01408593090698 L 723.2215693958416 18.90895335774605 L 723.2767313451347 18.804064898286363 L 723.3342107575434 18.69943104128646 L 723.3940018851741 18.595062250044844 L 723.456098748964 18.49096896135367 L 723.5204951392785 18.387161584455058 L 723.5871846165323 18.283650500000196 L 723.6561605118331 18.180446059011267 L 723.727415927649 18.07755858184637 L 723.8009437384976 17.974998357167483 L 723.8767365916592 17.872775640911602 L 723.9547869079116 17.77090065526517 L 724.0350868822884 17.669383587641857 L 724.1176284848588 17.568234589663827 L 724.2024034615315 17.46746377614659 L 724.2894033348795 17.367081224087517 L 724.3786194049878 17.26709697165817 L 724.470042750324 17.16752101720046 L 724.5636642286295 17.068363318226865 L 724.6594744778345 16.969633790424645 L 724.7574639169941 16.87134230666431 L 724.857622747246 16.773498696012318 L 724.9599409527905 16.67611274274821 L 725.0644083018923 16.57919418538615 L 725.1710143479038 16.482752715701107 L 725.279748430309 16.38679797775969 L 725.3905996757903 16.291339566955727 L 725.5035569993157 16.196387029050747 L 725.6186091052468 16.101949859219417 L 725.735744488469 16.008037501100024 L 725.8549514355414 15.914659345850119 L 725.9762180258688 15.82182473120741 L 726.0995321328933 15.729542940555998 L 726.2248814253066 15.637823201998053 L 726.3522533682843 15.546674687430993 L 726.4816352247382 15.45610651163032 L 726.6130140565903 15.366127731338139 L 726.7463767260668 15.2767473443575 L 726.8817098970122 15.187974288652613 L 727.0190000362221 15.099817441455077 L 727.1582334147969 15.012285618376144 L 727.2993961095148 14.925387572525182 L 727.4424740042239 14.839131993634357 L 727.587452791254 14.75352750718968 L 727.7343179728473 14.668582673568462 L 727.883054862608 14.584305987183274 L 728.0336485869709 14.500705875632526 L 728.1860840866893 14.41779069885771 L 728.3403461183401 14.3355687483074 L 728.4964192558488 14.254048246108137 L 728.6542878920316 14.17323734424221 L 728.8139362401565 14.09314412373246 L 728.9753483355216 14.013776593834194 L 729.1385080370521 13.935142691234265 L 729.3033990289136 13.8572502792574 L 729.4700048221446 13.780107147079892 L 729.6383087563044 13.70372100895067 L 729.8082940011396 13.628099503419893 L 729.9799435582679 13.553250192575096 L 730.1532402628764 13.479180561284988 L 730.3281667854388 13.405898016450976 L 730.504705633449 13.333409886266475 L 730.6828391531691 13.261723419484094 L 730.8625495313956 13.190845784690776 L 731.0438187972405 13.120784069590929 L 731.2266288239282 13.051545280297688 L 731.4109613306084 12.983136340632278 L 731.5967978841842 12.91556409143166 L 731.7841199011548 12.848835289864443 L 731.9729086494747 12.782956608755176 L 732.1631452504265 12.717934635917073 L 732.3548106805086 12.653775873493233 L 732.5478857733377 12.590486737306431 L 732.7423512215654 12.528073556217546 L 732.938187578809 12.466542571492676 L 733.1353752615958 12.40589993617902 L 733.333894551322 12.346151714489569 L 733.533725596224 12.287303881196708 L 733.7348484133638 12.22936232103472 L 733.9372428906274 12.172332828111342 L 734.1408887887358 12.116221105328341 L 734.3457657432685 12.061032763811234 L 734.5518532667012 12.006773322348183 L 734.7591307504531 11.953448206838118 L 734.9675774669486 11.901062749748153 L 735.1771725716898 11.849622189580344 L 735.3878951053407 11.799131670347839 L 735.5997239958238 11.749596241060488 L 735.8126380604264 11.701020855219936 L 736.0266160079195 11.653410370324293 L 736.2416364406868 11.606769547382369 L 736.4576778568639 11.561103050437595 L 736.6747186524894 11.516415446101606 L 736.8927371236648 11.4727112030976 L 737.1117114687244 11.429994691813452 L 737.3316197904162 11.3882701838647 L 737.5524400980913 11.347541851667364 L 737.774150309903 11.307813768020726 L 737.9967282550149 11.26908990570004 L 738.2201516758179 11.231374137059275 L 738.444398230156 11.19467023364386 L 738.6694454935609 11.158981865813551 L 738.8952709614937 11.124312602375394 L 739.1218520515957 11.090665910226837 L 739.3491661059469 11.05804515400906 L 739.577190393331 11.0264535957705 L 739.8059021115095 10.99589439464065 L 740.0352783895011 10.966370606514165 L 740.2652962898692 10.937885183745248 L 740.4959328110153 10.910440974852444 L 740.7271648894797 10.884040724233767 L 740.958969402247 10.85868707189228 L 741.1913231690594 10.83438255317209 L 741.4242029547336 10.811129598504815 L 741.6575854714852 10.788930533166546 L 741.891447381257 10.767787577045315 L 742.1257652980528 10.747702844419116 L 742.3605157902763 10.728678343744475 L 742.5956753830739 10.710715977455607 L 742.8312205606823 10.693817541774168 L 743.0671277687799 10.677984726529647 L 743.3033734168426 10.663219114990376 L 743.5399338805024 10.649522183705203 L 743.7767855039102 10.63689530235584 L 744.0139046021009 10.625339733619903 L 744.2512674633623 10.614856633044633 L 744.4888503516061 10.605447048931355 L 744.7266295087413 10.597111922230637 L 744.9645811570507 10.589852086448202 L 745.2026815015674 10.583668267561581 L 745.4409067324556 10.578561083947509 L 745.6792330273906 10.57453104632009 L 745.9176365539416 10.57157855767973 L 746.1560934719545 10.56970391327283 L 746.3945799359363 10.568907300562271 L 746.6330720974394 10.56918879920866 L 746.8715461074462 10.570548381062366 L 747.1099781187546 10.572985910166338 L 747.3483442883621 10.576501142769695 L 747.5866207798504 10.581093727352108 L 747.8247837657689 10.586763204658943 L 748.0628094300174 10.593509007747198 L 748.3006739702279 10.601330462042181 L 748.5383536001445 10.610226785404983 L 748.7758245520026 10.620197088210682 L 749.0130630789046 10.631240373437306 L 749.2500454571955 10.643355536765533 L 749.4867479888351 10.656541366689126 L 749.7231470037674 10.670796544636083 L 749.959218862288 10.686119645100487 L 750.1949399574077 10.702509135785062 L 750.4302867172133 10.719963377754397 L 750.6652356072252 10.73848062559884 L 750.89976313275 10.758059027609036 L 751.1338458412307 10.778696625961102 L 751.3674603245914 10.8003913569124 L 751.6005832215785 10.82314105100791 L 751.8331912200966 10.846943433297186 L 752.0652610595397 10.871796123561833 L 752.2967695331172 10.897696636553533 L 752.5276934901747 10.924642382242572 L 752.7580098385089 10.952630666076836 L 752.9876955466768 10.981658689251262 L 753.2167276462992 11.011723548987726 L 753.4450832343568 11.042822238825309 L 753.6727394754813 11.074951648920939 L 753.899673604238 11.108108566360384 L 754.1258629274034 11.14228967547953 L 754.3512848262337 11.177491558195946 L 754.5759167587266 11.2137106943507 L 754.7997362618763 11.250943462060357 L 755.0227209539189 11.289186138079174 L 755.2448485365709 11.328434898171416 L 755.4660967972594 11.368685817493782 L 755.6864436113425 11.409934870987883 L 755.9058669443224 11.452177933782743 L 756.1243448540488 11.495410781607283 L 756.3418554929127 11.539629091212753 L 756.5583771100315 11.584828440805035 L 756.7738880534239 11.63100431048684 L 756.9883667721751 11.678152082709678 L 757.2017918185921 11.726267042735614 L 757.4141418503481 11.775344379108745 L 757.6253956326168 11.82537918413633 L 757.835532040196 11.87636645437956 L 758.04453005962 11.928301091153903 L 758.2523687912612 11.981177901038958 L 758.4590274514195 12.034991596397802 L 758.6644853744012 12.089736795905742 L 758.8687220145852 12.145408025088448 L 759.0717169484775 12.201999716869397 L 759.2734498767541 12.259506212126567 L 759.4739006262902 12.317921760258358 L 759.6730491521778 12.377240519758631 L 759.8708755397304 12.437456558800873 L 760.067360006474 12.498563855831359 L 760.2624829041258 12.560556300171305 L 760.4562247205586 12.62342769262794 L 760.6485660817519 12.68717174611441 L 760.8394877537304 12.751782086278489 L 761.0289706444855 12.81725225214 L 761.2169958058864 12.883575696736914 L 761.4035444355735 12.950745787780042 L 761.5885978788392 13.018755808316254 L 761.7721376304935 13.087598957400173 L 761.9541453367142 13.157268350774258 L 762.1346027968823 13.22775702155723 L 762.3134919654021 13.29905792094075 L 762.4907949535059 13.371163918894297 L 762.6664940310427 13.444067804878166 L 762.840571628251 13.517762288564509 L 763.0130103375163 13.59224000056637 L 763.1837929151113 13.667493493174614 L 763.3529022829206 13.743515241102692 L 763.5203215301482 13.82029764223916 L 763.686033915009 13.89783301840789 L 763.8500228664027 13.97611361613588 L 764.0122719855707 14.055131607428589 L 764.1727650477363 14.134879090552737 L 764.3314860037272 14.215348090826463 L 764.4884189815797 14.296530561416805 L 764.643548288127 14.37841838414435 L 764.7968584105679 14.461003370295066 L 764.9483340180176 14.54427726143916 L 765.0979599630417 14.628231730256909 L 765.2457212831705 14.712858381371396 L 765.391603202395 14.79814875218803 L 765.5355911326449 14.884094313740805 L 765.6776706752471 14.970686471545188 L 765.8178276223658 15.057916566457557 L 765.956047958423 15.145775875541112 L 766.0923178615004 15.234255612938162 L 766.2266237047212 15.323346930748698 L 766.358952057613 15.413040919915185 L 766.4892896874507 15.503328611113446 L 766.61762356058 15.594200975649606 L 766.7439408437207 15.685648926362934 L 766.8682289052493 15.777663318534564 L 766.9904753164637 15.870234950801965 L 767.1106678528245 15.963354566079044 L 767.2287944951781 16.05701285248188 L 767.3448434309588 16.151200444259874 L 767.4588030553697 16.245907922732343 L 767.5706619725433 16.341125817230363 L 767.6804089966812 16.436844606043827 L 767.7880331531724 16.53305471737362 L 767.8935236796908 16.629746530288788 L 767.9968700272718 16.72691037568861 L 768.0980618613668 16.824536537269527 L 768.1970890628767 16.922615252496723 L 768.2939417291636 17.02113671358041 L 768.388610175042 17.120091068456585 L 768.4810849337459 17.21946842177222 L 768.5713567578767 17.3192588358748 L 768.6594166203271 17.419452331806063 L 768.7452557151842 17.520038890299922 L 768.8288654586102 17.621008452784345 L 768.9102374897001 17.722350922387225 L 768.989363671319 17.824056164946054 L 769.0662360909145 17.926114010021326 L 769.1408470613086 18.028514251913588 L 769.2131891214667 18.13124665068398 L 769.2832550372428 18.234300933178236 L 769.3510378021039 18.337666794053984 L 769.4165306378299 18.441333896811276 L 769.4797269951916 18.545291874826223 L 769.5406205546064 18.649530332387656 L 769.5992052267688 18.754038845736684 L 769.6554751532605 18.858806964109064 L 769.7094247071357 18.963824210780263 L 769.7610484934839 19.06908008411313 L 769.8103413499696 19.174564058608038 L 769.8572983473482 19.280265585955448 L 769.901914789959 19.38617409609071 L 769.9441862161951 19.492278998251063 L 769.9841083989489 19.59856968203471 L 770.0216773460356 19.705035518461855 L 770.0568893005916 19.81166586103757 L 770.0897407414509 19.91845004681646 L 770.1202283834969 20.02537739746893 L 770.1483491779906 20.132437220349026 L 770.1741003128759 20.23961880956367 L 770.1974792130611 20.346911447043258 L 770.2184835406754 20.45430440361346 L 770.2371111953037 20.561786940068103 L 770.2533603141959 20.66934830824312 L 770.2672292724538 20.77697775209132 L 770.2787166831931 20.88466450875801 L 770.2878213976823 20.992397809657266 L 770.2945425054575 21.10016688154877 L 770.2988793344134 21.207960947615145 L 770.300831450871 21.315769228539615 M 770.300952440927 55.654037643100004 L 770.2997599810233 55.76184818801663 L 770.2961827205572 55.869647951968595 L 770.290221017252 55.97742615506936 L 770.2818754672726 56.085172019588406 L 770.2711469051674 56.19287477102909 L 770.2580364037835 56.300523639206006 L 770.2425452741603 56.40810785932205 L 770.2246750653977 56.51561667304486 L 770.2044275645017 56.62303932958265 L 770.1818047962055 56.7303650867593 L 770.1568090227671 56.83758321208852 L 770.1294427437431 56.94468298384712 L 770.0997086957385 57.051653692147184 L 770.0676098521334 57.15848464000702 L 770.0331494227853 57.26516514442086 L 769.9963308537085 57.37168453742718 L 769.9571578267291 57.47803216717543 L 769.9156342591174 57.58419739899126 L 769.8717643031954 57.69016961643997 L 769.825552345922 57.79593822238811 L 769.7770030084547 57.90149264006323 L 769.7261211456866 58.00682231411153 L 769.6729118457617 58.11191671165338 L 769.6173804295655 58.216765323336595 L 769.5595324501935 58.321357664387385 L 769.4993736923954 58.42568327565881 L 769.4369101719967 58.52973172467667 L 769.3721481352975 58.633492606682786 L 769.3050940584475 58.73695554567541 L 769.2357546467986 58.84011019544686 L 769.1641368342339 58.942946240618134 L 769.0902477824752 59.0454533976704 L 769.0140948803662 59.14762141597338 L 768.9356857431334 59.24944007881039 L 768.8550282116253 59.35089920439998 L 768.7721303515278 59.45198864691415 L 768.687000452558 59.55269829749289 L 768.5996470276345 59.653018085255056 L 768.5100788120274 59.75293797830548 L 768.4183047624833 59.852447984738134 L 768.3243340563308 59.951538153635276 L 768.2281760905623 60.05019857606261 L 768.1298404808942 60.1484193860601 L 768.0293370608053 60.2461907616286 L 767.9266758805543 60.34350292571202 L 767.8218672061732 60.44034614717507 L 767.7149215184423 60.536710741776275 L 767.6058495118414 60.632587073136506 L 767.4946620934801 60.727965553702504 L 767.3813703820075 60.8228366457057 L 767.2659857065006 60.91719086211595 L 767.1485196053305 61.01101876759025 L 767.0289838250096 61.10431097941624 L 766.9073903190164 61.197058168450475 L 766.7837512466 61.28925106005134 L 766.6580789715646 61.38088043500651 L 766.5303860610331 61.47193713045484 L 766.4006852841901 61.56241204080266 L 766.2689896110052 61.652296118634354 L 766.1353122109359 61.74158037561702 L 765.999666451611 61.83025588339937 L 765.8620658974932 61.91831377450452 L 765.7225243085232 62.005745243216744 L 765.5810556387439 62.09254154646202 L 765.4376740349041 62.17869400468237 L 765.292393835045 62.26419400270376 L 765.1452295670651 62.34903299059763 L 764.996195947269 62.4332024845359 L 764.8453078788941 62.5166940676393 L 764.6925804506218 62.59949939081912 L 764.5380289350676 62.68161017361202 L 764.3816687872541 62.76301820500817 L 764.2235156430658 62.84371534427226 L 764.0635853176855 62.923693521757606 L 763.9018938040123 63.002944739713115 L 763.738457271063 63.081461073083034 L 763.5732920623544 63.159234670299455 L 763.4064146942701 63.23625775406746 L 763.2378418544076 63.312522622142865 L 763.0675903999105 63.388021648102416 L 762.8956773557824 63.462747282106434 L 762.7221199131843 63.53669205165379 L 762.546935427716 63.60984856232914 L 762.37014141768 63.68220949854239 L 762.19175556233 63.75376762426022 L 762.0117957001027 63.82451578372968 L 761.8302798268346 63.89444690219379 L 761.6472260939616 63.96355398659898 L 761.4626528067047 64.03183012629438 L 761.2765784222385 64.09926849372295 L 761.0890215478465 64.16586234510412 L 760.9000009390599 64.23160502110825 L 760.709535497782 64.29648994752253 L 760.5176442703981 64.36051063590838 L 760.3243464458714 64.42366068425032 L 760.1296613538228 64.48593377759616 L 759.9336084625996 64.54732368868842 L 759.7362073773274 64.60782427858717 L 759.5374778379504 64.66742949728383 L 759.3374397172566 64.72613338430622 L 759.1361130188917 64.78393006931454 L 758.9335178753577 64.84081377268845 L 758.7296745459998 64.89677880610503 L 758.5246034149816 64.95181957310757 L 758.3183249892448 65.00593056966522 L 758.1108598964605 65.05910638472345 L 757.9022288829648 65.11134170074504 L 757.6924528116854 65.16263129424193 L 757.4815526600544 65.2129700362975 L 757.2695495179113 65.26235289307951 L 757.0564645853937 65.31077492634341 L 756.8423191708173 65.35823129392625 L 756.627134688545 65.40471725023082 L 756.4109326568457 65.4502281467002 L 756.1937346957426 65.49475943228269 L 755.9755625248506 65.53830665388683 L 755.756437961205 65.58086545682676 L 755.5363829170797 65.62243158525764 L 755.3154193977956 65.66300088260128 L 755.0935694995206 65.70256929196175 L 754.8708554070596 65.74113285653107 L 754.6472993916361 65.77868771998494 L 754.4229238086657 65.8152301268683 L 754.1977510955194 65.8507564229709 L 753.971803769281 65.88526305569277 L 753.7451044244948 65.91874657439936 L 753.5176757309064 65.95120363076673 L 753.2895404311955 65.98263097911627 L 753.0607213387023 66.01302547673934 L 752.8312413351449 66.0423840842115 L 752.6011233683329 66.07070386569649 L 752.3703904498708 66.09798198923974 L 752.1390656528584 66.12421572705163 L 751.9071721095826 66.14940245578025 L 751.6747330092045 66.17353965677371 L 751.4417715954404 66.19662491633201 L 751.2083111642374 66.21865592594847 L 750.9743750614444 66.23963048254045 L 750.7399866804765 66.25954648866978 L 750.5051694599765 66.27840195275246 L 750.2699468814709 66.29619498925778 L 750.0343424670212 66.31292381889692 L 749.7983797768729 66.32858676880085 L 749.5620824070983 66.34318227268764 L 749.3254739872373 66.35670887101907 L 749.0885781779347 66.36916521114655 L 748.8514186685742 66.38055004744649 L 748.614019174909 66.39086224144472 L 748.3764034366906 66.40010076193043 L 748.1385952152949 66.4082646850593 L 747.9006182913458 66.41535319444577 L 747.6624964623375 66.42136558124486 L 747.4242535402543 66.42630124422287 L 747.18591334919 66.43015968981763 L 746.947499722965 66.43294053218779 L 746.7090365027432 66.43464349325143 L 746.4705475346481 66.43526840271386 L 746.2320566673775 66.43481519808466 L 745.9935877498197 66.43328392468392 L 745.7551646286674 66.43067473563768 L 745.5168111460345 66.4269878918627 L 745.27855113707 66.42222376204028 L 745.0404084275768 66.41638282257941 L 744.8024068316272 66.40946565756917 L 744.5645701491824 66.40147295872033 L 744.3269221637124 66.3924055252961 L 744.0894866398179 66.38226426403224 L 743.8522873208532 66.37105018904646 L 743.6153479265528 66.35876442173691 L 743.3786921506585 66.34540819067004 L 743.1423436585507 66.33098283145789 L 742.9063260848816 66.31548978662431 L 742.670663031212 66.2989306054609 L 742.4353780636509 66.28130694387197 L 742.2004947104989 66.26262056420899 L 741.9660364598956 66.24287333509434 L 741.7320267574707 66.2220672312345 L 741.4984890039993 66.20020433322252 L 741.2654465530625 66.17728682732997 L 741.0329227087108 66.15331700528833 L 740.8009407231349 66.12829726405984 L 740.5695237943403 66.10223010559778 L 740.3386950638268 66.07511813659627 L 740.1084776142752 66.04696406822961 L 739.8788944672386 66.0177707158812 L 739.6499685808403 65.9875409988619 L 739.4217228474783 65.95627794011827 L 739.1941800915357 65.92398466593009 L 738.9673630670984 65.8906644055979 L 738.74129445568 65.85632049111994 L 738.515996863953 65.82095635685907 L 738.2914928214889 65.78457553919922 L 738.067804778505 65.74718167619186 L 737.8449551036191 65.7087785071921 L 737.622966081613 65.66936987248485 L 737.4018599112039 65.62895971290075 L 737.1816587028245 65.58755206942209 L 736.9623844764124 65.54515108277869 L 736.7440591592072 65.50176099303388 L 736.5267045835587 65.45738613916049 L 736.3103424847437 65.41203095860693 L 736.0949944987914 65.36569998685346 L 735.8806821603212 65.31839785695863 L 735.667426900388 65.27012929909601 L 735.4552500443406 65.22089914008119 L 735.2441728096873 65.17071230288902 L 735.0342163039759 65.11957380616141 L 734.825401522682 65.06748876370541 L 734.6177493471097 65.01446238398188 L 734.4112805423035 64.96049996958457 L 734.2060157549719 64.90560691670998 L 734.0019755114224 64.84978871461766 L 733.7991802155094 64.79305094508128 L 733.5976501465937 64.73539928183051 L 733.397405457514 64.67683948998365 L 733.1984661725724 64.61737742547108 L 733.0008521855316 64.5570190344497 L 732.8045832576257 64.4957703527083 L 732.6096790155839 64.43363750506404 L 732.416158949668 64.37062670474988 L 732.2240424117232 64.30674425279335 L 732.0333486132434 64.24199653738643 L 731.8440966234494 64.17639003324669 L 731.6563053673825 64.10993130096986 L 731.4699936240119 64.04262698637382 L 731.2851800243565 63.97448381983389 L 731.1018830496224 63.90550861560999 L 730.9201210293543 63.83570827116503 L 730.7399121396027 63.76508976647531 L 730.5612744011064 63.69366016333244 L 730.3842256774905 63.62142660463721 L 730.2087836734796 63.54839631368529 L 730.0349659331282 63.474576593444915 L 729.8627898380653 63.39997482582661 L 729.6922726057569 63.324598470944956 L 729.5234312877843 63.24845506637263 L 729.3562827681384 63.17155222638664 L 729.190843761532 63.09389764120689 L 729.0271308117278 63.015499076227194 L 728.8651602898846 62.93636437123872 L 728.7049483929193 62.85650143964601 L 728.5465111418881 62.77591826767568 L 728.3898643803843 62.694622913577774 L 728.2350237729535 62.61262350681996 L 728.0820048035271 62.529928247274576 L 727.9308227738749 62.44654540439866 L 727.7814928020736 62.36248331640702 L 727.634029820996 62.2777503894384 L 727.4884485768175 62.19235509671489 L 727.344763627541 62.1063059776946 L 727.2029893415419 62.01961163721772 L 727.0631398961305 61.932280744646064 L 726.9252292761347 61.8443220329961 L 726.7892712725017 61.75574429806569 L 726.6552794809186 61.66655639755454 L 726.5232673004529 61.57676725017834 L 726.3932479322125 61.48638583477704 L 726.265234378026 61.39542118941684 L 726.1392394391421 61.30388241048648 L 726.0152757149498 61.21177865178757 L 725.8933556017181 61.11911912361922 L 725.7734912913567 61.02591309185704 L 725.6556947701968 60.93216987702654 L 725.5399778177923 60.83789885337107 L 725.426352005742 60.74310944791445 L 725.3148286965327 60.64781113951822 L 725.205419042402 60.55201345793381 L 725.0981339842243 60.45572598284956 L 724.992984250416 60.358958342932716 L 724.889980355863 60.26172021486665 L 724.7891326008687 60.16402132238313 L 724.6904510701246 60.065871435289985 L 724.5939456317017 59.967280368494144 L 724.4996259360632 59.868257981020115 L 724.4075014151002 59.76881417502413 L 724.317581281188 59.66895889480393 L 724.2298745262651 59.568702125804315 L 724.1443899209338 59.46805389361863 L 724.0611360135836 59.36702426298624 L 723.9801211295355 59.265623336786 L 723.9013533702107 59.16386125502604 L 723.8248406123195 59.06174819382973 L 723.7505905070736 58.95929436441809 L 723.6786104794221 58.8565100120887 L 723.6089077273074 58.753405415191125 L 723.5414892209469 58.64999088409914 L 723.4763617021349 58.54627676017967 L 723.413531683569 58.44227341475869 L 723.3530054481988 58.33799124808406 L 723.2947890485973 58.233440688285555 L 723.2388883063561 58.12863219033202 L 723.1853088115026 58.023576234985924 L 723.1340559219418 57.91828332775525 L 723.08513476292 57.81276399784297 L 723.0385502265121 57.707028797094154 L 722.9943069711333 57.60108829894075 L 722.9524094210718 57.49495309734431 L 722.9128617660481 57.38863380573653 L 722.8756679607944 57.28214105595798 L 722.8408317246606 57.17548549719489 L 722.8083565412409 57.068677794914265 L 722.7782456580269 56.96172862979732 L 722.7505020860816 56.85464869667144 L 722.7251285997393 56.74744870344071 L 722.7021277363273 56.64013937001512 L 722.6815017959128 56.53273142723859 L 722.6632528410727 56.425235615815886 L 722.6473826966873 56.317662685238574 L 722.6338929497578 56.21002339271006 L 722.6227849492475 56.102328502069916 L 722.6140598059475 55.99458878271744 L 722.6077183923645 55.8868150085348 L 722.6037613426349 55.7790179568096 L 722.6021890524602 55.671208407157174" stroke-miterlimit="10" stroke-width="2.7769845610000004" stroke-dasharray=""/></g><g><g/><text fill="black" stroke="none" font-family="sans-serif" font-size="11pt" font-style="normal" font-weight="normal" text-decoration="normal" x="640.0700477493918" y="83.962944962" text-anchor="start" dominant-baseline="alphabetic" xml:space="preserve">База_данных as "База данных"</text></g><path fill="none" stroke="none"/><g><path fill="white" stroke="black" paint-order="fill stroke markers" d=" M 869.1682667964621 44.758457042 L 987.2212182601966 44.758457042 L 987.2212182601966 88.863505952 L 869.1682667964621 88.863505952 L 869.1682667964621 44.758457042 Z" stroke-miterlimit="10" stroke-width="2.613632528" stroke-dasharray=""/></g><g><g/><text fill="black" stroke="none" font-family="sans-serif" font-size="11pt" font-style="normal" font-weight="normal" text-decoration="normal" x="886.8919623769622" y="72.52830265200001" text-anchor="start" dominant-baseline="alphabetic" xml:space="preserve">Сервер_API</text></g><path fill="none" stroke="none"/><g><path fill="white" stroke="black" paint-order="fill stroke markers" d=" M 1138.81703347003 44.758457042 L 1265.6674092501707 44.758457042 L 1265.6674092501707 88.863505952 L 1138.81703347003 88.863505952 L 1138.81703347003 44.758457042 Z" stroke-miterlimit="10" stroke-width="2.613632528" stroke-dasharray=""/></g><g><g/><text fill="black" stroke="none" font-family="sans-serif" font-size="11pt" font-style="normal" font-weight="normal" text-decoration="normal" x="1156.54072905053" y="72.52830265200001" text-anchor="start" dominant-baseline="alphabetic" xml:space="preserve">База_данных</text></g></g><g><path fill="white" stroke="black" paint-order="fill stroke markers" d=" M 47.56621551513672 97.03110760199999 L 63.90141881513672 97.03110760199999 L 63.90141881513672 142.769676842 L 47.56621551513672 142.769676842 L 47.56621551513672 97.03110760199999" stroke-miterlimit="10" stroke-width="1.3612669416666667" stroke-dasharray=""/><path fill="white" stroke="black" paint-order="fill stroke markers" d=" M 374.3338023791341 142.769676842 L 390.6690056791341 142.769676842 L 390.6690056791341 325.723953802 L 374.3338023791341 325.723953802 L 374.3338023791341 142.769676842" stroke-miterlimit="10" stroke-width="1.3612669416666667" stroke-dasharray=""/><path fill="white" stroke="black" paint-order="fill stroke markers" d=" M 920.0271408783293 188.508246082 L 936.3623441783294 188.508246082 L 936.3623441783294 325.723953802 L 920.0271408783293 325.723953802 L 920.0271408783293 188.508246082" stroke-miterlimit="10" stroke-width="1.3612669416666667" stroke-dasharray=""/><path fill="white" stroke="black" paint-order="fill stroke markers" d=" M 1194.0746197101003 234.246815322 L 1210.4098230101004 234.246815322 L 1210.4098230101004 279.985384562 L 1194.0746197101003 279.985384562 L 1194.0746197101003 234.246815322" stroke-miterlimit="10" stroke-width="1.3612669416666667" stroke-dasharray=""/><path fill="white" stroke="black" paint-order="fill stroke markers" d=" M 47.56621551513672 325.723953802 L 63.90141881513672 325.723953802 L 63.90141881513672 371.462523042 L 47.56621551513672 371.462523042 L 47.56621551513672 325.723953802" stroke-miterlimit="10" stroke-width="1.3612669416666667" stroke-dasharray=""/><path fill="white" stroke="black" paint-order="fill stroke markers" d=" M 374.3338023791341 371.462523042 L 390.6690056791341 371.462523042 L 390.6690056791341 554.416800002 L 374.3338023791341 554.416800002 L 374.3338023791341 371.462523042" stroke-miterlimit="10" stroke-width="1.3612669416666667" stroke-dasharray=""/><path fill="white" stroke="black" paint-order="fill stroke markers" d=" M 920.0271408783293 417.201092282 L 936.3623441783294 417.201092282 L 936.3623441783294 554.416800002 L 920.0271408783293 554.416800002 L 920.0271408783293 417.201092282" stroke-miterlimit="10" stroke-width="1.3612669416666667" stroke-dasharray=""/><path fill="white" stroke="black" paint-order="fill stroke markers" d=" M 1194.0746197101003 462.939661522 L 1210.4098230101004 462.939661522 L 1210.4098230101004 508.678230762 L 1194.0746197101003 508.678230762 L 1194.0746197101003 462.939661522" stroke-miterlimit="10" stroke-width="1.3612669416666667" stroke-dasharray=""/><path fill="white" stroke="black" paint-order="fill stroke markers" d=" M 47.56621551513672 554.416800002 L 63.90141881513672 554.416800002 L 63.90141881513672 1057.5410616419995 L 47.56621551513672 1057.5410616419995 L 47.56621551513672 554.416800002" stroke-miterlimit="10" stroke-width="1.3612669416666667" stroke-dasharray=""/><path fill="white" stroke="black" paint-order="fill stroke markers" d=" M 374.3338023791341 600.1553692419999 L 390.6690056791341 600.1553692419999 L 390.6690056791341 1057.5410616419995 L 374.3338023791341 1057.5410616419995 L 374.3338023791341 600.1553692419999" stroke-miterlimit="10" stroke-width="1.3612669416666667" stroke-dasharray=""/><path fill="white" stroke="black" paint-order="fill stroke markers" d=" M 920.0271408783293 645.8939384819998 L 936.3623441783294 645.8939384819998 L 936.3623441783294 1011.8024924019994 L 920.0271408783293 1011.8024924019994 L 920.0271408783293 645.8939384819998" stroke-miterlimit="10" stroke-width="1.3612669416666667" stroke-dasharray=""/><path fill="white" stroke="black" paint-order="fill stroke markers" d=" M 1194.0746197101003 920.3253539219995 L 1210.4098230101004 920.3253539219995 L 1210.4098230101004 966.0639231619995 L 1194.0746197101003 966.0639231619995 L 1194.0746197101003 920.3253539219995" stroke-miterlimit="10" stroke-width="1.3612669416666667" stroke-dasharray=""/><g><rect fill="white" stroke="none" x="121.74607308309244" y="121.533912552" width="206.96927131714844" height="21.23576429"/><text fill="black" stroke="none" font-family="sans-serif" font-size="11pt" font-style="normal" font-weight="normal" text-decoration="normal" x="124.19635357809244" y="136.235595522" text-anchor="start" dominant-baseline="alphabetic" xml:space="preserve">Отправить запрос на витрину</text><g><text fill="black" stroke="none" font-family="sans-serif" font-size="11pt" font-style="normal" font-weight="bold" text-decoration="normal" x="111.97015728902994" y="136.235595522" text-anchor="start" dominant-baseline="alphabetic" xml:space="preserve">1 </text></g></g><g><path fill="none" stroke="black" paint-order="fill stroke markers" d=" M 63.90141881513672 142.769676842 L 360.88448499546746 142.769676842" stroke-miterlimit="10" stroke-width="1.3612669416666667" stroke-dasharray=""/><g transform="translate(374.3338023791341,142.769676842) translate(-374.3338023791341,-142.769676842)"><path fill="black" stroke="none" paint-order="stroke fill markers" d=" M 360.72113296246744 135.96334213366666 L 374.3338023791341 142.769676842 L 360.72113296246744 149.57601155033333 Z"/></g></g><g><rect fill="white" stroke="none" x="599.9378928813879" y="167.272481792" width="123.04655708375" height="21.23576429"/><text fill="black" stroke="none" font-family="sans-serif" font-size="11pt" font-style="normal" font-weight="normal" text-decoration="normal" x="602.388173376388" y="181.974164762" text-anchor="start" dominant-baseline="alphabetic" xml:space="preserve">GET /api/products</text><g><text fill="black" stroke="none" font-family="sans-serif" font-size="11pt" font-style="normal" font-weight="bold" text-decoration="normal" x="590.1619770873255" y="181.974164762" text-anchor="start" dominant-baseline="alphabetic" xml:space="preserve">2 </text></g></g><g><path fill="none" stroke="black" paint-order="fill stroke markers" d=" M 390.6690056791341 188.508246082 L 906.5778234946627 188.508246082" stroke-miterlimit="10" stroke-width="1.3612669416666667" stroke-dasharray=""/><g transform="translate(920.0271408783293,188.508246082) translate(-920.0271408783293,-188.508246082)"><path fill="black" stroke="none" paint-order="stroke fill markers" d=" M 906.4144714616626 181.70191137366666 L 920.0271408783293 188.508246082 L 906.4144714616626 195.31458079033334 Z"/></g></g><g><rect fill="white" stroke="none" x="976.1647773769491" y="213.011051032" width="190.33360542359375" height="21.23576429"/><text fill="black" stroke="none" font-family="sans-serif" font-size="11pt" font-style="normal" font-weight="normal" text-decoration="normal" x="978.6150578719491" y="227.712734002" text-anchor="start" dominant-baseline="alphabetic" xml:space="preserve">Запросить данные товаров</text><g><text fill="black" stroke="none" font-family="sans-serif" font-size="11pt" font-style="normal" font-weight="bold" text-decoration="normal" x="966.3888615828866" y="227.712734002" text-anchor="start" dominant-baseline="alphabetic" xml:space="preserve">3 </text></g></g><g><path fill="none" stroke="black" paint-order="fill stroke markers" d=" M 936.3623441783294 234.246815322 L 1180.6253023264335 234.246815322" stroke-miterlimit="10" stroke-width="1.3612669416666667" stroke-dasharray=""/><g transform="translate(1194.0746197101003,234.246815322) translate(-1194.0746197101003,-234.246815322)"><path fill="black" stroke="none" paint-order="stroke fill markers" d=" M 1180.4619502934336 227.44048061366667 L 1194.0746197101003 234.246815322 L 1180.4619502934336 241.05315003033334 Z"/></g></g><g><rect fill="white" stroke="none" x="986.8304954555624" y="258.74962027199996" width="169.0021692663672" height="21.23576429"/><text fill="black" stroke="none" font-family="sans-serif" font-size="11pt" font-style="normal" font-weight="normal" text-decoration="normal" x="989.2807759505624" y="273.45130324199994" text-anchor="start" dominant-baseline="alphabetic" xml:space="preserve">Вернуть список товаров</text><g><text fill="black" stroke="none" font-family="sans-serif" font-size="11pt" font-style="normal" font-weight="bold" text-decoration="normal" x="977.0545796614999" y="273.45130324199994" text-anchor="start" dominant-baseline="alphabetic" xml:space="preserve">4 </text></g></g><g><path fill="none" stroke="black" paint-order="fill stroke markers" d=" M 1194.0746197101003 279.985384562 L 949.8116615619961 279.985384562" stroke-miterlimit="10" stroke-width="1.3612669416666667" stroke-dasharray="6.53408132"/><g transform="translate(936.3623441783294,279.985384562) translate(-936.3623441783294,-279.985384562)"><path fill="black" stroke="none" paint-order="stroke fill markers" d=" M 949.9750135949961 273.17904985366664 L 936.3623441783294 279.985384562 L 949.9750135949961 286.7917192703333 Z"/></g></g><g><rect fill="white" stroke="none" x="605.2993735942786" y="304.48818951199996" width="112.32359565796875" height="21.23576429"/><text fill="black" stroke="none" font-family="sans-serif" font-size="11pt" font-style="normal" font-weight="normal" text-decoration="normal" x="607.7496540892786" y="319.18987248199994" text-anchor="start" dominant-baseline="alphabetic" xml:space="preserve">Список товаров</text><g><text fill="black" stroke="none" font-family="sans-serif" font-size="11pt" font-style="normal" font-weight="bold" text-decoration="normal" x="595.5234578002161" y="319.18987248199994" text-anchor="start" dominant-baseline="alphabetic" xml:space="preserve">5 </text></g></g><g><path fill="none" stroke="black" paint-order="fill stroke markers" d=" M 920.0271408783293 325.723953802 L 404.11832306280075 325.723953802" stroke-miterlimit="10" stroke-width="1.3612669416666667" stroke-dasharray="6.53408132"/><g transform="translate(390.6690056791341,325.723953802) translate(-390.6690056791341,-325.723953802)"><path fill="black" stroke="none" paint-order="stroke fill markers" d=" M 404.2816750958008 318.91761909366664 L 390.6690056791341 325.723953802 L 404.2816750958008 332.5302885103333 Z"/></g></g><g><rect fill="white" stroke="none" x="171.90355904500652" y="350.22675875199997" width="106.65429939332031" height="21.23576429"/><text fill="black" stroke="none" font-family="sans-serif" font-size="11pt" font-style="normal" font-weight="normal" text-decoration="normal" x="174.3538395400065" y="364.92844172199995" text-anchor="start" dominant-baseline="alphabetic" xml:space="preserve">Выбрать товар</text><g><text fill="black" stroke="none" font-family="sans-serif" font-size="11pt" font-style="normal" font-weight="bold" text-decoration="normal" x="162.127643250944" y="364.92844172199995" text-anchor="start" dominant-baseline="alphabetic" xml:space="preserve">6 </text></g></g><g><path fill="none" stroke="black" paint-order="fill stroke markers" d=" M 63.90141881513672 371.462523042 L 360.88448499546746 371.462523042" stroke-miterlimit="10" stroke-width="1.3612669416666667" stroke-dasharray=""/><g transform="translate(374.3338023791341,371.462523042) translate(-374.3338023791341,-371.462523042)"><path fill="black" stroke="none" paint-order="stroke fill markers" d=" M 360.72113296246744 364.65618833366665 L 374.3338023791341 371.462523042 L 360.72113296246744 378.2688577503333 Z"/></g></g><g><rect fill="white" stroke="none" x="587.300098386759" y="395.96532799199997" width="148.32214607300781" height="21.23576429"/><text fill="black" stroke="none" font-family="sans-serif" font-size="11pt" font-style="normal" font-weight="normal" text-decoration="normal" x="589.750378881759" y="410.66701096199995" text-anchor="start" dominant-baseline="alphabetic" xml:space="preserve">GET /api/products/{id}</text><g><text fill="black" stroke="none" font-family="sans-serif" font-size="11pt" font-style="normal" font-weight="bold" text-decoration="normal" x="577.5241825926965" y="410.66701096199995" text-anchor="start" dominant-baseline="alphabetic" xml:space="preserve">7 </text></g></g><g><path fill="none" stroke="black" paint-order="fill stroke markers" d=" M 390.6690056791341 417.201092282 L 906.5778234946627 417.201092282" stroke-miterlimit="10" stroke-width="1.3612669416666667" stroke-dasharray=""/><g transform="translate(920.0271408783293,417.201092282) translate(-920.0271408783293,-417.201092282)"><path fill="black" stroke="none" paint-order="stroke fill markers" d=" M 906.4144714616626 410.39475757366665 L 920.0271408783293 417.201092282 L 906.4144714616626 424.00742699033333 Z"/></g></g><g><rect fill="white" stroke="none" x="973.945737459957" y="441.703897232" width="194.77168525757813" height="21.23576429"/><text fill="black" stroke="none" font-family="sans-serif" font-size="11pt" font-style="normal" font-weight="normal" text-decoration="normal" x="976.396017954957" y="456.40558020199995" text-anchor="start" dominant-baseline="alphabetic" xml:space="preserve">Запросить данные о товаре</text><g><text fill="black" stroke="none" font-family="sans-serif" font-size="11pt" font-style="normal" font-weight="bold" text-decoration="normal" x="964.1698216658945" y="456.40558020199995" text-anchor="start" dominant-baseline="alphabetic" xml:space="preserve">8 </text></g></g><g><path fill="none" stroke="black" paint-order="fill stroke markers" d=" M 936.3623441783294 462.939661522 L 1180.6253023264335 462.939661522" stroke-miterlimit="10" stroke-width="1.3612669416666667" stroke-dasharray=""/><g transform="translate(1194.0746197101003,462.939661522) translate(-1194.0746197101003,-462.939661522)"><path fill="black" stroke="none" paint-order="stroke fill markers" d=" M 1180.4619502934336 456.13332681366666 L 1194.0746197101003 462.939661522 L 1180.4619502934336 469.74599623033333 Z"/></g></g><g><rect fill="white" stroke="none" x="989.6508232143515" y="487.442466472" width="163.36151374878906" height="21.23576429"/><text fill="black" stroke="none" font-family="sans-serif" font-size="11pt" font-style="normal" font-weight="normal" text-decoration="normal" x="992.1011037093515" y="502.14414944199996" text-anchor="start" dominant-baseline="alphabetic" xml:space="preserve">Вернуть детали товара</text><g><text fill="black" stroke="none" font-family="sans-serif" font-size="11pt" font-style="normal" font-weight="bold" text-decoration="normal" x="979.874907420289" y="502.14414944199996" text-anchor="start" dominant-baseline="alphabetic" xml:space="preserve">9 </text></g></g><g><path fill="none" stroke="black" paint-order="fill stroke markers" d=" M 1194.0746197101003 508.678230762 L 949.8116615619961 508.678230762" stroke-miterlimit="10" stroke-width="1.3612669416666667" stroke-dasharray="6.53408132"/><g transform="translate(936.3623441783294,508.678230762) translate(-936.3623441783294,-508.678230762)"><path fill="black" stroke="none" paint-order="stroke fill markers" d=" M 949.9750135949961 501.87189605366666 L 936.3623441783294 508.678230762 L 949.9750135949961 515.4845654703333 Z"/></g></g><g><rect fill="white" stroke="none" x="613.1375999126379" y="533.1810357119999" width="104.80032600464844" height="21.23576429"/><text fill="black" stroke="none" font-family="sans-serif" font-size="11pt" font-style="normal" font-weight="normal" text-decoration="normal" x="615.587880407638" y="547.8827186819999" text-anchor="start" dominant-baseline="alphabetic" xml:space="preserve">Детали товара</text><g><text fill="black" stroke="none" font-family="sans-serif" font-size="11pt" font-style="normal" font-weight="bold" text-decoration="normal" x="595.208501135177" y="547.8827186819999" text-anchor="start" dominant-baseline="alphabetic" xml:space="preserve">10 </text></g></g><g><path fill="none" stroke="black" paint-order="fill stroke markers" d=" M 920.0271408783293 554.416800002 L 404.11832306280075 554.416800002" stroke-miterlimit="10" stroke-width="1.3612669416666667" stroke-dasharray="6.53408132"/><g transform="translate(390.6690056791341,554.416800002) translate(-390.6690056791341,-554.416800002)"><path fill="black" stroke="none" paint-order="stroke fill markers" d=" M 404.2816750958008 547.6104652936666 L 390.6690056791341 554.416800002 L 404.2816750958008 561.2231347103333 Z"/></g></g><g><rect fill="white" stroke="none" x="138.20993264119792" y="578.9196049519999" width="181.38585151734375" height="21.23576429"/><text fill="black" stroke="none" font-family="sans-serif" font-size="11pt" font-style="normal" font-weight="normal" text-decoration="normal" x="140.6602131361979" y="593.6212879219999" text-anchor="start" dominant-baseline="alphabetic" xml:space="preserve">Добавить товар в корзину</text><g><text fill="black" stroke="none" font-family="sans-serif" font-size="11pt" font-style="normal" font-weight="bold" text-decoration="normal" x="121.08971753072916" y="593.6212879219999" text-anchor="start" dominant-baseline="alphabetic" xml:space="preserve">11 </text></g></g><g><path fill="none" stroke="black" paint-order="fill stroke markers" d=" M 63.90141881513672 600.1553692419999 L 360.88448499546746 600.1553692419999" stroke-miterlimit="10" stroke-width="1.3612669416666667" stroke-dasharray=""/><g transform="translate(374.3338023791341,600.1553692419999) translate(-374.3338023791341,-600.1553692419999)"><path fill="black" stroke="none" paint-order="stroke fill markers" d=" M 360.72113296246744 593.3490345336666 L 374.3338023791341 600.1553692419999 L 360.72113296246744 606.9617039503332 Z"/></g></g><g><rect fill="white" stroke="none" x="615.0202064189856" y="624.6581741919998" width="101.03511299195313" height="21.23576429"/><text fill="black" stroke="none" font-family="sans-serif" font-size="11pt" font-style="normal" font-weight="normal" text-decoration="normal" x="617.4704869139856" y="639.3598571619998" text-anchor="start" dominant-baseline="alphabetic" xml:space="preserve">POST /api/cart</text><g><text fill="black" stroke="none" font-family="sans-serif" font-size="11pt" font-style="normal" font-weight="bold" text-decoration="normal" x="597.0911076415247" y="639.3598571619998" text-anchor="start" dominant-baseline="alphabetic" xml:space="preserve">12 </text></g></g><g><path fill="none" stroke="black" paint-order="fill stroke markers" d=" M 390.6690056791341 645.8939384819998 L 906.5778234946627 645.8939384819998" stroke-miterlimit="10" stroke-width="1.3612669416666667" stroke-dasharray=""/><g transform="translate(920.0271408783293,645.8939384819998) translate(-920.0271408783293,-645.8939384819998)"><path fill="black" stroke="none" paint-order="stroke fill markers" d=" M 906.4144714616626 639.0876037736665 L 920.0271408783293 645.8939384819998 L 906.4144714616626 652.7002731903332 Z"/></g></g><g><rect fill="white" stroke="none" x="984.4325381628867" y="670.3967434319998" width="190.1188684851172" height="21.23576429"/><text fill="black" stroke="none" font-family="sans-serif" font-size="11pt" font-style="normal" font-weight="normal" text-decoration="normal" x="986.8828186578867" y="685.0984264019997" text-anchor="start" dominant-baseline="alphabetic" xml:space="preserve">Проверить наличие товара</text><g><text fill="black" stroke="none" font-family="sans-serif" font-size="11pt" font-style="normal" font-weight="bold" text-decoration="normal" x="966.5034393854257" y="685.0984264019997" text-anchor="start" dominant-baseline="alphabetic" xml:space="preserve">13 </text></g></g><g><path fill="none" stroke="black" paint-order="fill stroke markers" d=" M 936.3623441783294 691.6325077219998 L 1188.7929039764335 691.6325077219998" stroke-miterlimit="10" stroke-width="1.3612669416666667" stroke-dasharray=""/><g transform="translate(1202.2422213601003,691.6325077219998) translate(-1202.2422213601003,-691.6325077219998)"><path fill="black" stroke="none" paint-order="stroke fill markers" d=" M 1188.6295519434336 684.8261730136664 L 1202.2422213601003 691.6325077219998 L 1188.6295519434336 698.4388424303331 Z"/></g></g><g><rect fill="white" stroke="none" x="1016.3831378332968" y="716.1353126719997" width="126.21766914429688" height="21.23576429"/><text fill="black" stroke="none" font-family="sans-serif" font-size="11pt" font-style="normal" font-weight="normal" text-decoration="normal" x="1018.8334183282968" y="730.8369956419997" text-anchor="start" dominant-baseline="alphabetic" xml:space="preserve">Товар закончился</text><g><text fill="black" stroke="none" font-family="sans-serif" font-size="11pt" font-style="normal" font-weight="bold" text-decoration="normal" x="998.4540390558359" y="730.8369956419997" text-anchor="start" dominant-baseline="alphabetic" xml:space="preserve">14 </text></g></g><g><path fill="none" stroke="black" paint-order="fill stroke markers" d=" M 1202.2422213601003 737.3710769619997 L 949.8116615619961 737.3710769619997" stroke-miterlimit="10" stroke-width="1.3612669416666667" stroke-dasharray="6.53408132"/><g transform="translate(936.3623441783294,737.3710769619997) translate(-936.3623441783294,-737.3710769619997)"><path fill="black" stroke="none" paint-order="stroke fill markers" d=" M 949.9750135949961 730.5647422536664 L 936.3623441783294 737.3710769619997 L 949.9750135949961 744.1774116703331 Z"/></g></g><g><rect fill="white" stroke="none" x="602.4289283428137" y="761.8738819119997" width="126.21766914429688" height="21.23576429"/><text fill="black" stroke="none" font-family="sans-serif" font-size="11pt" font-style="normal" font-weight="normal" text-decoration="normal" x="604.8792088378137" y="776.5755648819996" text-anchor="start" dominant-baseline="alphabetic" xml:space="preserve">Товар закончился</text><g><text fill="black" stroke="none" font-family="sans-serif" font-size="11pt" font-style="normal" font-weight="bold" text-decoration="normal" x="584.4998295653528" y="776.5755648819996" text-anchor="start" dominant-baseline="alphabetic" xml:space="preserve">15 </text></g></g><g><path fill="none" stroke="black" paint-order="fill stroke markers" d=" M 920.0271408783293 783.1096462019997 L 404.11832306280075 783.1096462019997" stroke-miterlimit="10" stroke-width="1.3612669416666667" stroke-dasharray="6.53408132"/><g transform="translate(390.6690056791341,783.1096462019997) translate(-390.6690056791341,-783.1096462019997)"><path fill="black" stroke="none" paint-order="stroke fill markers" d=" M 404.2816750958008 776.3033114936663 L 390.6690056791341 783.1096462019997 L 404.2816750958008 789.915980910333 Z"/></g></g><g><rect fill="white" stroke="none" x="103.61078865926432" y="807.6124511519996" width="251.39302314820313" height="21.23576429"/><text fill="black" stroke="none" font-family="sans-serif" font-size="11pt" font-style="normal" font-weight="normal" text-decoration="normal" x="106.06106915426432" y="822.3141341219996" text-anchor="start" dominant-baseline="alphabetic" xml:space="preserve">Уведомление, что товар закончился</text><g><text fill="black" stroke="none" font-family="sans-serif" font-size="11pt" font-style="normal" font-weight="bold" text-decoration="normal" x="85.68168988180338" y="822.3141341219996" text-anchor="start" dominant-baseline="alphabetic" xml:space="preserve">16 </text></g></g><g><path fill="none" stroke="black" paint-order="fill stroke markers" d=" M 374.3338023791341 828.8482154419996 L 77.35073619880339 828.8482154419996" stroke-miterlimit="10" stroke-width="1.3612669416666667" stroke-dasharray="6.53408132"/><g transform="translate(63.90141881513672,828.8482154419996) translate(-63.90141881513672,-828.8482154419996)"><path fill="black" stroke="none" paint-order="stroke fill markers" d=" M 77.51408823180338 822.0418807336663 L 63.90141881513672 828.8482154419996 L 77.51408823180338 835.654550150333 Z"/></g></g><g><rect fill="white" stroke="none" x="1020.6243640295859" y="853.3510203919996" width="117.73521675171875" height="21.23576429"/><text fill="black" stroke="none" font-family="sans-serif" font-size="11pt" font-style="normal" font-weight="normal" text-decoration="normal" x="1023.0746445245859" y="868.0527033619995" text-anchor="start" dominant-baseline="alphabetic" xml:space="preserve">Товар в наличии</text><g><text fill="black" stroke="none" font-family="sans-serif" font-size="11pt" font-style="normal" font-weight="bold" text-decoration="normal" x="1002.695265252125" y="868.0527033619995" text-anchor="start" dominant-baseline="alphabetic" xml:space="preserve">17 </text></g></g><g><path fill="none" stroke="black" paint-order="fill stroke markers" d=" M 1202.2422213601003 874.5867846819996 L 949.8116615619961 874.5867846819996" stroke-miterlimit="10" stroke-width="1.3612669416666667" stroke-dasharray="6.53408132"/><g transform="translate(936.3623441783294,874.5867846819996) translate(-936.3623441783294,-874.5867846819996)"><path fill="black" stroke="none" paint-order="stroke fill markers" d=" M 949.9750135949961 867.7804499736662 L 936.3623441783294 874.5867846819996 L 949.9750135949961 881.3931193903329 Z"/></g></g><g><rect fill="white" stroke="none" x="1011.2041374233359" y="899.0895896319995" width="128.40806831421875" height="21.23576429"/><text fill="black" stroke="none" font-family="sans-serif" font-size="11pt" font-style="normal" font-weight="normal" text-decoration="normal" x="1013.6544179183359" y="913.7912726019995" text-anchor="start" dominant-baseline="alphabetic" xml:space="preserve">Обновить корзину</text><g><text fill="black" stroke="none" font-family="sans-serif" font-size="11pt" font-style="normal" font-weight="bold" text-decoration="normal" x="993.2750386458749" y="913.7912726019995" text-anchor="start" dominant-baseline="alphabetic" xml:space="preserve">18 </text></g></g><g><path fill="none" stroke="black" paint-order="fill stroke markers" d=" M 936.3623441783294 920.3253539219995 L 1180.6253023264335 920.3253539219995" stroke-miterlimit="10" stroke-width="1.3612669416666667" stroke-dasharray=""/><g transform="translate(1194.0746197101003,920.3253539219995) translate(-1194.0746197101003,-920.3253539219995)"><path fill="black" stroke="none" paint-order="stroke fill markers" d=" M 1180.4619502934336 913.5190192136662 L 1194.0746197101003 920.3253539219995 L 1180.4619502934336 927.1316886303329 Z"/></g></g><g><rect fill="white" stroke="none" x="976.071714022457" y="944.8281588719994" width="198.67291511597656" height="21.23576429"/><text fill="black" stroke="none" font-family="sans-serif" font-size="11pt" font-style="normal" font-weight="normal" text-decoration="normal" x="978.521994517457" y="959.5298418419994" text-anchor="start" dominant-baseline="alphabetic" xml:space="preserve">Подтверждение обновления</text><g><text fill="black" stroke="none" font-family="sans-serif" font-size="11pt" font-style="normal" font-weight="bold" text-decoration="normal" x="958.142615244996" y="959.5298418419994" text-anchor="start" dominant-baseline="alphabetic" xml:space="preserve">19 </text></g></g><g><path fill="none" stroke="black" paint-order="fill stroke markers" d=" M 1194.0746197101003 966.0639231619995 L 949.8116615619961 966.0639231619995" stroke-miterlimit="10" stroke-width="1.3612669416666667" stroke-dasharray="6.53408132"/><g transform="translate(936.3623441783294,966.0639231619995) translate(-936.3623441783294,-966.0639231619995)"><path fill="black" stroke="none" paint-order="stroke fill markers" d=" M 949.9750135949961 959.2575884536661 L 936.3623441783294 966.0639231619995 L 949.9750135949961 972.8702578703328 Z"/></g></g><g><rect fill="white" stroke="none" x="574.021648374552" y="990.5667281119994" width="183.03222908082031" height="21.23576429"/><text fill="black" stroke="none" font-family="sans-serif" font-size="11pt" font-style="normal" font-weight="normal" text-decoration="normal" x="576.471928869552" y="1005.2684110819994" text-anchor="start" dominant-baseline="alphabetic" xml:space="preserve">Товар добавлен в корзину</text><g><text fill="black" stroke="none" font-family="sans-serif" font-size="11pt" font-style="normal" font-weight="bold" text-decoration="normal" x="556.0925495970911" y="1005.2684110819994" text-anchor="start" dominant-baseline="alphabetic" xml:space="preserve">20 </text></g></g><g><path fill="none" stroke="black" paint-order="fill stroke markers" d=" M 920.0271408783293 1011.8024924019994 L 404.11832306280075 1011.8024924019994" stroke-miterlimit="10" stroke-width="1.3612669416666667" stroke-dasharray="6.53408132"/><g transform="translate(390.6690056791341,1011.8024924019994) translate(-390.6690056791341,-1011.8024924019994)"><path fill="black" stroke="none" paint-order="stroke fill markers" d=" M 404.2816750958008 1004.9961576936661 L 390.6690056791341 1011.8024924019994 L 404.2816750958008 1018.6088271103328 Z"/></g></g><g><rect fill="white" stroke="none" x="150.08537514608074" y="1036.3052973519996" width="158.44385017457031" height="21.23576429"/><text fill="black" stroke="none" font-family="sans-serif" font-size="11pt" font-style="normal" font-weight="normal" text-decoration="normal" x="152.53565564108072" y="1051.0069803219997" text-anchor="start" dominant-baseline="alphabetic" xml:space="preserve">Отображение корзины</text><g><text fill="black" stroke="none" font-family="sans-serif" font-size="11pt" font-style="normal" font-weight="bold" text-decoration="normal" x="132.15627636861979" y="1051.0069803219997" text-anchor="start" dominant-baseline="alphabetic" xml:space="preserve">21 </text></g></g><g><path fill="none" stroke="black" paint-order="fill stroke markers" d=" M 374.3338023791341 1057.5410616419995 L 77.35073619880339 1057.5410616419995" stroke-miterlimit="10" stroke-width="1.3612669416666667" stroke-dasharray="6.53408132"/><g transform="translate(63.90141881513672,1057.5410616419995) translate(-63.90141881513672,-1057.5410616419995)"><path fill="black" stroke="none" paint-order="stroke fill markers" d=" M 77.51408823180338 1050.7347269336663 L 63.90141881513672 1057.5410616419995 L 77.51408823180338 1064.3473963503327 Z"/></g></g></g><g/><g/><g/><g/><g/><g/></g></svg>